<?xml version="1.0" encoding="UTF-8"?>
<!DOCTYPE svg PUBLIC "-//W3C//DTD SVG 1.0//EN" "http://www.w3.org/TR/2001/REC-SVG-20010904/DTD/svg10.dtd">
<!-- Creator: CorelDRAW X7 -->
<svg xmlns="http://www.w3.org/2000/svg" xml:space="preserve" width="1.58081in" height="1.38374in" version="1.0" style="shape-rendering:geometricPrecision; text-rendering:geometricPrecision; image-rendering:optimizeQuality; fill-rule:evenodd; clip-rule:evenodd"
viewBox="0 0 616 539"
 xmlns:xlink="http://www.w3.org/1999/xlink">
 <defs>
  <style type="text/css">
   <![CDATA[
    .str0 {stroke:#373435;stroke-width:1.16862}
    .str1 {stroke:black;stroke-width:1.16862}
    .fil1 {fill:#96989A}
    .fil0 {fill:#373435}
    .fil2 {fill:black}
   ]]>
  </style>
 </defs>
 <g id="Layer_x0020_1">
  <metadata id="CorelCorpID_0Corel-Layer"/>
  <g id="_2887533752496">
   <g id="cabFrameOutline">
    <path class="fil0 str0" d="M8 144l57 20c-21,39 -37,80 -44,115l-20 0c1,10 3,20 6,29l11 0 0 2c0,29 18,61 36,89 5,8 12,20 19,34 21,24 46,45 74,62 5,1 11,2 16,2l88 0c8,0 16,0 22,-1l0 41c9,1 19,1 29,1l0 -49c5,-2 11,-5 17,-8 16,-9 84,-59 144,-105l25 0c4,2 9,3 14,3l26 0c-37,30 -63,72 -72,121 13,-8 26,-16 37,-25 16,-40 45,-73 82,-94 8,-13 14,-27 20,-41 -6,2 -12,4 -18,6l-76 0c27,-20 49,-38 58,-46 30,-27 38,-49 39,-80l0 0 17 0c0,-11 -1,-22 -2,-33l-15 0c-1,0 -2,0 -3,1 -5,-39 -19,-73 -40,-122 -27,-60 -73,-61 -151,-60l-29 0c-59,0 -89,0 -143,4l-6 0c-28,2 -44,4 -58,12l-71 -21c-8,7 -16,15 -23,23l68 21c-8,10 -18,23 -30,40 -11,16 -22,33 -33,52l-61 -20c-4,9 -7,18 -10,27zm128 -42c27,-39 58,-60 93,-62l6 -1c50,-4 79,-4 132,-4l0 26 -231 41zm231 -41l0 1 29 0 -29 0 -19 0c-35,0 -59,0 -97,4l-5 0c-47,4 -51,8 -85,56 -36,51 -74,127 -73,173 0,26 21,57 38,82 3,5 7,10 10,15 16,26 40,44 59,44l70 0c21,0 29,-1 50,-13 7,-3 27,-18 52,-36l0 24c-30,22 -54,39 -62,44 -22,12 -28,13 -54,13l-88 0c-15,0 -39,-16 -58,-46 -4,-6 -9,-13 -13,-20 -19,-27 -44,-65 -45,-92 -1,-52 45,-144 90,-208l-1 0 231 -41zm98 213l1 0 -2 1 0 1 0 -1c-15,13 -37,29 -68,53 -5,4 -9,7 -14,11l-15 11 15 -11 0 0c-12,9 -22,16 -31,23l0 19 -26 0c-13,9 -21,15 -24,17 -6,3 -10,5 -14,6l0 10c0,1 -1,1 -2,1l-83 9 -62 -37 -3 0c-1,0 -2,0 -2,-1l-28 -106c0,-1 0,-1 1,-2 3,-3 8,-6 13,-7 0,-3 1,-6 2,-10l16 -41c12,-28 29,-58 46,-82 19,-27 40,-41 63,-43l5 0c37,-3 60,-3 94,-3l19 0 15 0c4,0 6,0 9,0l6 0 -6 0c62,1 72,5 81,26 13,29 22,52 27,73l0 4c0,1 0,3 -1,4 -1,1 -3,2 -4,3 -8,5 -19,12 -19,33l1 0c0,3 0,6 0,10l-10 29zm-181 131c-5,1 -10,1 -19,1l-70 0c-4,0 -20,-7 -34,-29 -4,-5 -7,-11 -11,-16 -14,-21 -32,-49 -33,-66 0,-6 1,-13 3,-20 -4,1 -6,3 -9,6l27 100 5 0 60 37 81 -9 0 -4zm189 -74c2,-4 5,-7 8,-10 12,-9 24,-18 35,-28 10,-7 17,-13 21,-17l0 0c12,-10 19,-19 23,-28 4,-7 5,-16 5,-26 0,0 0,-1 0,-2 0,-5 1,-9 3,-13 0,-2 -1,-4 -1,-6 -3,-38 -17,-72 -39,-123 -18,-41 -36,-43 -115,-43l-17 0 0 27 0 0 -29 0 29 0 0 1c53,0 84,2 102,43 13,32 24,56 29,81 0,1 0,3 0,3l0 3c0,8 1,20 -13,30 -2,1 -4,3 -6,4 -1,1 -3,2 -4,3 0,0 0,1 0,5 0,3 0,6 0,9 1,16 2,36 -13,48 -20,17 -59,46 -95,73l0 24c26,-19 53,-39 77,-58z"/>
    <path class="fil1" d="M367 62l30 0 -30 0z"/>
    <path class="fil1" d="M366 92c10,0 20,0 30,0l-30 0z"/>
    <path class="fil1" d="M367 350l29 -22 -29 22z"/>
    <path class="fil1" d="M464 276l11 -31 -11 31z"/>
   </g>
   <g id="detailViewOfCabControls">
    <path class="fil0 str0" d="M284 409l-81 9 -60 -37 -5 0 -27 -100c4,-5 10,-7 16,-7l112 0c6,0 40,2 45,7l0 128zm-48 -142l0 3 -26 0 0 -3 26 0zm-17 -6l8 0 0 2 -8 0 0 -2zm-9 -4l6 -4c1,0 2,-1 1,-2l-2 -16c-1,-4 -3,-8 -6,-11l-12 -12c0,0 0,-1 0,-1 0,0 0,0 0,0l6 -3c3,-2 6,-1 8,1l10 10c3,2 4,6 5,9l3 24c0,1 0,1 1,1l10 4 0 0 -30 0 0 0zm-6 -28l0 -5 2 2c1,1 2,2 3,3l-5 0zm13 -22l-1 1 -2 -1 2 -1 1 1zm6 6l3 3 -1 1c-1,0 -1,-1 -1,-1l-2 -2 1 -1zm64 65c-5,-4 -40,-7 -47,-8l0 -5c0,-1 -1,-2 -2,-2l-7 0 0 -2 11 0c1,0 2,-1 2,-2l0 -4c0,0 -1,-1 -2,-1l-10 -4 -3 -22c0,-3 -1,-5 -2,-8l3 -3c1,0 1,-1 0,-2l-6 -6c0,0 -2,0 -2,0l-3 3 -1 -1 3 -3c0,-1 0,-2 0,-3l-4 -3c-1,-1 -2,-1 -3,0l-2 2c-3,-1 -7,-1 -10,0l-6 3c-2,1 -3,2 -3,4 0,1 0,3 1,4l7 6 0 10c0,1 0,2 1,2l8 0c1,1 1,2 1,2l3 16 -7 3c0,0 -1,1 -1,1l0 4c0,1 1,2 2,2l8 0 0 2 -8 0c-1,0 -1,6 -1,7l-81 0c-7,1 -13,4 -18,8 -1,1 -1,1 -1,2l28 106c0,1 1,1 2,1l3 0 62 37 83 -9c1,0 2,0 2,-1l0 -134c0,-1 0,-1 0,-2z"/>
    <path class="fil2 str1" d="M182 301c0,6 5,11 11,11 7,0 12,-5 12,-11 0,-7 -5,-12 -12,-12 -6,0 -11,5 -11,12zm20 0c0,5 -4,9 -9,9 -5,0 -9,-4 -9,-9 0,-5 4,-10 9,-10 5,0 9,5 9,10z"/>
    <path class="fil2 str1" d="M190 300c0,2 1,3 2,3l0 3c0,0 0,1 1,1 1,0 1,-1 1,-1l0 -3c1,0 2,-1 2,-3 0,-1 -1,-2 -3,-2 -1,0 -3,1 -3,2z"/>
    <path class="fil2 str1" d="M208 318c-1,0 -2,2 -2,3 0,1 1,2 2,2 2,0 3,-1 3,-2 0,-1 -1,-3 -3,-3z"/>
    <path class="fil2 str1" d="M208 312c-3,0 -5,2 -7,4l-22 0c0,0 -1,0 -1,0l-3 4c0,0 0,1 0,1l3 4c0,0 1,0 1,0l4 0c1,0 1,0 1,-1l0 -1 2 0 0 1c0,1 1,1 1,1l5 0c1,0 1,0 1,-1l0 -1 2 0 0 1c0,1 0,1 1,1l5 0c2,3 4,4 7,4 5,0 9,-3 9,-8 0,-5 -4,-9 -9,-9zm0 15c-2,0 -4,-1 -5,-3 0,0 -1,-1 -1,-1l-5 0 0 -1c0,-1 0,-1 -1,-1l-4 0c-1,0 -1,0 -1,1l0 1 -2 0 0 -1c0,-1 -1,-1 -2,-1l-4 0c-1,0 -1,0 -1,1l0 1 -3 0 -1 -2 2 -2 22 0c0,0 1,-1 1,-1 1,-2 3,-3 5,-3 4,0 6,3 6,6 0,3 -2,6 -6,6z"/>
    <path class="fil2 str1" d="M201 357c-2,1 -11,5 -13,6 -1,2 -2,5 0,7 1,1 2,1 3,1 2,0 3,0 3,-1 2,-1 7,-10 8,-12 1,0 1,-1 0,-1 0,0 -1,-1 -1,0zm-8 11c-1,1 -1,1 -2,1 0,0 -1,-1 -1,-1 -1,-1 -1,-2 0,-3 1,-1 4,-2 8,-4 -2,3 -5,7 -5,7z"/>
    <path class="fil2 str1" d="M192 342c-13,0 -24,11 -24,24 0,6 2,12 6,16 0,0 0,1 0,1 1,0 1,-1 1,-1 4,-2 11,-4 17,-4 6,0 12,2 17,4 0,1 1,1 1,0 4,-4 6,-10 6,-16 0,-13 -11,-24 -24,-24zm17 38c-5,-3 -11,-4 -17,-4 -7,0 -13,1 -17,4 -3,-4 -5,-9 -5,-14 0,-12 10,-21 22,-21 12,0 22,9 22,21 0,5 -2,10 -5,14z"/>
    <path class="fil2 str1" d="M192 352c1,0 1,0 1,-1l0 -3c0,-1 0,-1 -1,-1 -1,0 -1,0 -1,1l0 3c0,1 0,1 1,1z"/>
    <path class="fil2 str1" d="M206 366c0,1 0,2 1,2l3 0c1,0 2,-1 2,-2 0,0 -1,-1 -2,-1l-3 0c-1,0 -1,1 -1,1z"/>
    <path class="fil2 str1" d="M178 366c0,0 -1,-1 -1,-1l-3 0c-1,0 -2,1 -2,1 0,1 1,2 2,2l3 0c0,0 1,-1 1,-2z"/>
    <path class="fil2 str1" d="M204 358c0,0 0,1 0,1 0,1 1,1 1,1 0,0 0,0 1,0l2 -2c1,0 1,-1 1,-1 0,-1 -1,-1 -2,-1l-3 2z"/>
    <path class="fil2 str1" d="M178 373l-3 2c0,0 0,1 0,1 0,1 1,1 1,1 0,0 0,0 1,0l2 -2c1,0 1,-1 1,-2 0,0 -1,0 -2,0z"/>
    <path class="fil2 str1" d="M199 354c0,0 0,1 1,1 0,0 0,-1 1,-1l1 -3c1,0 0,-1 0,-2 -1,0 -2,0 -2,1l-2 3c0,0 0,1 1,1z"/>
    <path class="fil2 str1" d="M184 350c0,-1 -1,-1 -2,-1 0,1 0,2 0,2l2 3c0,0 0,1 1,1 0,0 0,-1 0,-1 1,0 1,-1 1,-1l-2 -3z"/>
    <path class="fil2 str1" d="M180 358l-3 -2c-1,0 -1,0 -2,1 0,0 0,1 1,1l2 2c1,0 1,0 1,0 1,0 1,0 1,-1 0,0 0,-1 0,-1z"/>
    <path class="fil2 str1" d="M209 375l-3 -2c-1,0 -1,0 -2,0 0,1 0,2 1,2l3 2c0,0 0,0 0,0 1,0 1,0 1,-1 1,0 0,-1 0,-1z"/>
    <path class="fil2 str1" d="M243 357c2,1 11,6 13,7 2,2 2,5 0,7 -1,1 -2,1 -3,1 -2,0 -3,0 -4,-1 -1,-1 -7,-10 -8,-12 0,0 0,-1 0,-1 1,-1 1,-1 2,-1zm8 12c0,1 1,1 2,1 0,0 1,0 1,-1 1,-1 1,-2 0,-3 -1,-1 -4,-3 -8,-4 2,3 4,7 5,7z"/>
    <path class="fil2 str1" d="M252 342c14,0 25,11 25,25 0,6 -2,12 -6,17 0,0 0,0 -1,0 0,0 0,0 0,0 -5,-3 -11,-4 -18,-4 -7,0 -13,1 -18,4 0,0 -1,0 -1,0 -4,-5 -6,-11 -6,-17 0,-14 11,-25 25,-25zm-18 39c5,-2 11,-4 18,-4 7,0 13,2 18,4 3,-4 5,-9 5,-14 0,-12 -10,-22 -23,-22 -13,0 -23,10 -23,22 0,5 2,10 5,14z"/>
    <path class="fil2 str1" d="M252 353c-1,0 -1,-1 -1,-1l0 -4c0,-1 0,-1 1,-1 1,0 1,0 1,1l0 4c0,0 0,1 -1,1z"/>
    <path class="fil2 str1" d="M237 367c0,1 0,2 -1,2l-3 0c-1,0 -1,-1 -1,-2 0,0 0,-1 1,-1l3 0c1,0 1,1 1,1z"/>
    <path class="fil2 str1" d="M267 367c0,0 0,-1 1,-1l3 0c1,0 2,1 2,1 0,1 -1,2 -2,2l-3 0c-1,0 -1,-1 -1,-2z"/>
    <path class="fil2 str1" d="M239 358c1,1 1,2 0,2 0,1 0,1 -1,1 0,0 0,0 0,0l-3 -2c-1,0 -1,-1 -1,-2 1,0 1,-1 2,0l3 1z"/>
    <path class="fil2 str1" d="M266 374l3 2c1,0 1,1 1,2 -1,0 -1,0 -1,0 -1,0 -1,0 -1,0l-3 -1c-1,-1 -1,-2 0,-2 0,-1 1,-1 1,-1z"/>
    <path class="fil2 str1" d="M245 355c-1,0 -1,0 -1,0 0,0 -1,0 -1,-1l-2 -3c0,0 0,-1 1,-1 0,-1 1,0 1,0l2 3c1,1 0,2 0,2z"/>
    <path class="fil2 str1" d="M260 350c1,0 1,-1 2,0 1,0 1,1 0,2l-1 2c0,1 -1,1 -1,1 -1,0 -1,0 -1,0 -1,0 -1,-1 0,-2l1 -3z"/>
    <path class="fil2 str1" d="M265 358l3 -1c0,-1 1,0 1,0 1,1 1,2 0,2l-3 2c0,0 0,0 -1,0 0,0 0,0 -1,-1 0,0 0,-1 1,-2z"/>
    <path class="fil2 str1" d="M234 376l3 -2c1,0 2,0 2,1 0,0 0,1 0,1l-3 2c-1,0 -1,0 -1,0 0,0 -1,0 -1,0 0,-1 0,-2 0,-2z"/>
   </g>
  </g>
 </g>
</svg>
