<?xml version="1.0" encoding="UTF-8"?>
<!DOCTYPE svg PUBLIC "-//W3C//DTD SVG 1.0//EN" "http://www.w3.org/TR/2001/REC-SVG-20010904/DTD/svg10.dtd">
<!-- Creator: CorelDRAW X7 -->
<svg xmlns="http://www.w3.org/2000/svg" xml:space="preserve" width="5.02301in" height="4.66519in" version="1.0" style="shape-rendering:geometricPrecision; text-rendering:geometricPrecision; image-rendering:optimizeQuality; fill-rule:evenodd; clip-rule:evenodd"
viewBox="0 0 50381 46792"
 xmlns:xlink="http://www.w3.org/1999/xlink">
 <defs>
  <style type="text/css">
   <![CDATA[
    .str2 {stroke:#373435;stroke-width:69.6576}
    .str0 {stroke:#373435;stroke-width:69.6576}
    .str3 {stroke:#373435;stroke-width:69.6576;stroke-dasharray:139.315198 208.972797}
    .str1 {stroke:#373435;stroke-width:69.6576;stroke-dasharray:139.315198 208.972797}
    .fil1 {fill:none}
    .fil0 {fill:#FEFEFE}
    .fil5 {fill:black}
    .fil4 {fill:#666666}
    .fil6 {fill:#999999}
    .fil7 {fill:#B3B3B3}
    .fil2 {fill:#E6E6E6}
    .fil3 {fill:#F7F7F7}
   ]]>
  </style>
 </defs>
 <g id="Layer_x0020_1">
  <metadata id="CorelCorpID_0Corel-Layer"/>
  <path class="fil0 str0" d="M10351 46757l0 -25862 -493 0 0 -6510 493 0 0 -1076c-911,0 -1789,28 -2698,3 -228,-6 -490,17 -717,-3 -323,-28 -621,-204 -897,-374 -191,-119 -356,-290 -479,-479 -1342,-2077 -2418,-3780 -3128,-5078 -285,-522 -623,-824 -728,-1204 -396,-1436 738,-2210 3978,-3609 1403,-606 2964,-814 4669,-853l0 -1190c-1239,20 -3402,213 -5490,1063 -1843,750 -4738,1811 -4823,4162 -12,323 12,2849 14,3213 6,973 119,1202 560,2028 608,1135 1774,1276 2647,2090 873,813 1504,1872 1944,2707 440,836 634,1461 660,2238 217,6509 119,13025 69,19538 -2,342 28,772 -226,1001 -592,534 -1217,1034 -1776,1602 -108,109 -205,258 -205,412 0,1213 -51,2427 0,3639 7,167 44,366 174,470l2595 2072 3857 0z"/>
  <path class="fil0 str0" d="M10351 46757l0 -46235c1239,20 3401,213 5490,1063 1843,750 4737,1811 4823,4162 11,323 -12,2849 -14,3213 -6,973 -119,1202 -561,2028 -607,1135 -1774,1276 -2646,2090 -873,813 -1504,1872 -1944,2707 -440,836 -634,1461 -660,2238 -218,6509 -119,13025 -69,19538 2,342 -28,772 226,1001 592,534 1217,1034 1776,1602 108,109 205,258 205,412 0,1213 51,2427 0,3639 -7,167 -44,366 -174,470l-2595 2072 -3857 0z"/>
  <path class="fil0 str0" d="M10351 1712c1705,39 3265,247 4668,853 3241,1399 4374,2173 3979,3609 -105,380 -443,682 -728,1204 -710,1298 -1786,3001 -3129,5078 -122,189 -287,360 -479,479 -275,170 -574,346 -896,374 -227,20 -489,-3 -717,3 -909,25 -1788,-3 -2698,-3 -911,0 -1789,28 -2698,3 -228,-6 -490,17 -717,-3 -323,-28 -621,-204 -897,-374 -191,-119 -356,-290 -479,-479 -1342,-2077 -2418,-3780 -3128,-5078 -285,-522 -623,-824 -728,-1204 -396,-1436 738,-2210 3978,-3609 1403,-606 2964,-814 4669,-853z"/>
  <ellipse class="fil0 str0" cx="4104" cy="5336" rx="1505" ry="794"/>
  <ellipse class="fil0 str0" cx="4104" cy="5201" rx="1250" ry="659"/>
  <g>
   <path class="fil0" d="M9858 7411c0,511 -785,925 -1754,925 -968,0 -1753,-414 -1753,-925l3507 0zm0 0c0,511 -785,925 -1754,925 -968,0 -1753,-414 -1753,-925l3507 0zm-3507 -4249c0,-511 785,-925 1753,-925 969,0 1754,414 1754,925l-3507 0zm0 0l0 4249 0 -4249zm3507 0l0 4249 0 -4249zm0 4660c0,511 -785,925 -1754,925 -968,0 -1753,-414 -1753,-925l3507 0zm-3507 0l0 -611 0 611zm0 -4660c0,-511 785,-925 1753,-925 969,0 1754,414 1754,925l-3507 0zm0 0l0 1094 0 -1094zm0 2902l0 1347 0 -1347zm3507 -2902l0 1094 0 -1094zm0 2902l0 1347 0 -1347zm0 1758c0,511 -785,925 -1754,925 -968,0 -1753,-414 -1753,-925l3507 0zm-3507 0l0 -611 0 611zm0 -3566l3507 0 0 1808 -3507 0 0 -1808zm2970 3421c-17,14 -36,28 -56,42l-8 6c-11,7 -23,15 -35,22l-8 6c-12,7 -25,15 -37,22l-9 5 -1 1 -18 9 0 1 -2 0 -20 11 -4 2 -12 6c-21,11 -43,21 -65,31l-3 2c-61,27 -127,51 -196,73l-9 3 -27 8 -2 0 -15 5 -16 4 -16 5 -16 4 -16 4 -16 4 -17 4 -16 4 -3 0 -13 3 -1 0 -17 4 -3 1 -13 3 -17 3 -15 3 -2 0 -18 3 0 1 -14 2 -3 1 -17 2 -1 1 -16 2 0 0 -18 3 -1 0 -15 2 -2 1 -17 2 -7 1 -3 0 -23 4 -18 2 -3 0 -18 2 -12 1 -6 1 -18 2 -5 0 -3 1 -25 2 -16 1 -6 1 -19 1 -3 0 -15 1 -19 1 -3 0 -5 1 -30 1 -2 0 -1 0 -34 1 -2 0 -3 0 -26 1 -7 0 -1 0 -8 0 -30 0 -34 0 -2 0 -1 0 -5 0 -30 -1 -3 0 -2 0 -31 -1 -4 0 -1 0 -30 -1 -6 -1 -12 0 -17 -1 -7 -1 -5 0 -23 -2 -9 -1 -9 0 -24 -2 -3 -1 -7 0 -18 -2 -10 -1 -7 -1 -17 -2 -12 -1 -5 -1 -17 -2 -13 -2 -3 0 -26 -4 -12 -2 -23 -3 -5 -1 -1 0 -16 -3 -17 -3 0 0 -1 0 -30 -6 -1 0 -2 0 -14 -3 -16 -3 -3 -1 -13 -3 -16 -3 -4 -1 -12 -3 -15 -3 -1 -1 -14 -3 -1 0 -15 -4 0 0 -14 -3 -1 -1 -16 -4 -1 0 -14 -4 -15 -4 -15 -4 -14 -5 -10 -3 -5 -1 -15 -5 -4 -1 -10 -3 -15 -5 -1 -1 -13 -4 -14 -5 -14 -5 -14 -5 -2 0 -12 -5 -13 -5 -5 -2 -20 -8 -5 -2 -21 -8 -3 -2 -13 -5 -10 -5 -6 -2 -22 -10 -13 -6 -12 -6 -13 -6 -9 -5 -1 0 -10 -6 -1 0 -16 -9 -2 -1 -10 -5 -9 -5 -10 -6 -2 -1 -16 -9 0 0 -10 -6 -9 -5 -9 -6 -3 -2 -14 -9 -9 -6 -1 0 -7 -6 -9 -5 -17 -12 -8 -6 -13 -10 -3 -2 -8 -6 -7 -6 -8 -6 -1 -1 -6 -5 -8 -6 -7 -7 -7 -6 0 0 -7 -6 -3 -2 -8 -8 -9 -9 -8 -7 -9 -10 -4 -3 -6 -7 -6 -6 -6 -7 -9 -10 -5 -6 -10 -11 -4 -6 -9 -11 -5 -7 -8 -11 -4 -6 0 0 -5 -7 -5 -7 -2 -4 -8 -12 -2 -5 -8 -14 -3 -5 -6 -12 -3 -5 -7 -15 0 -2 -1 -2 -6 -14 -1 -2 -1 -2 -1 -3 -4 -11 -1 -3 0 -2 -5 -14 0 -2 -1 -1 0 -2 -1 -2 -3 -12 -1 -2 0 -1 0 -2 -3 -14 -1 -2 0 -3 -1 -2 -2 -15 0 -1 0 -1 -2 -17 -1 -2 0 0c0,-6 -1,-13 -1,-19l0 0 0 -1 0 0c0,-6 -1,-13 -1,-19 0,-425 653,-769 1457,-769 805,0 1457,344 1457,769 0,6 0,12 0,19l0 1 0 1c-1,6 -1,11 -2,17l0 1 0 1 0 0c0,6 -1,11 -2,17l0 2 0 0 0 2 -3 15 0 2 -1 1 0 2 -3 13 0 2 -1 4 0 0 -1 2 -2 9 -1 2 0 2 -1 2 0 0 0 1 -1 2 -2 8 -1 3 -3 9 -5 12 -1 4 -6 15 -3 5 -5 11 -4 9 -6 11 -3 6 -7 13 -3 5 -7 11 -5 8 -1 1 -4 7 -1 2 -4 5 -5 7 -5 7 0 0 -5 6 0 1 -6 7 -1 1 -8 11 -2 1 -5 7 0 1 -5 5 -1 1 -6 7 -1 1 -11 11 0 1 -6 6 -6 7 -7 6 -2 3 -10 9 -1 1 -7 7 -7 6 -7 6 0 1 -13 10 -1 2 -8 6 -7 6 -8 6zm-619 -5216c31,8 60,15 90,24l5 1 2 1 29 8 1 1 29 9 2 0 28 9 2 1 27 9 2 1 27 10 2 1 26 10 2 1 26 10 27 11 2 1 25 11 23 11 3 1 2 1 23 12 2 1 23 12 2 1 23 12 2 1 22 12 2 2 21 12c13,8 27,17 39,25l5 3 2 2 20 13c12,9 25,18 37,27l3 3 2 2 18 13 0 1c12,9 23,19 34,29l3 2c11,11 22,22 33,33 10,10 19,20 28,30l3 4 11 13 3 3c4,6 9,11 13,16l0 1c13,17 24,34 35,51l1 3c4,6 7,11 10,17l1 1c6,11 12,23 17,35l1 2c8,18 15,36 20,55l1 1c5,18 9,37 12,56l0 1c2,13 4,26 4,39l0 0c1,7 1,13 1,20l0 0 0 3c0,425 -652,769 -1457,769 -804,0 -1457,-344 -1457,-769l0 0 0 -1c0,-5 1,-10 1,-15l0 -1 0 0 0 -1 0 0 0 -1 0 0 0 0 0 -1 0 0 0 -1 0 -1 0 0 0 -1 0 0 1 -9 0 0 0 -1 0 0 0 -1 0 -1 0 0 0 -1c1,-12 3,-25 5,-37l0 -1c3,-12 5,-25 9,-37l0 0c1,-6 3,-12 5,-18l0 -1c2,-5 4,-11 6,-16l1 -3 6 -15 1 -3c3,-6 5,-11 8,-17l0 -1 8 -15 2 -4 7 -13 3 -5 7 -13 3 -4 9 -14 2 -3 10 -15 1 -2 11 -14 3 -5 10 -12 4 -4 11 -14 2 -1 13 -15 2 -2c4,-5 9,-9 13,-14l3 -3 13 -13 4 -4 13 -11 5 -4 13 -12 3 -3 16 -13 1 -1c24,-20 50,-39 78,-57l2 -2c21,-13 42,-27 64,-39l23 -13 1 -1 23 -12 1 -1 23 -12 2 -1 23 -11 20 -10 6 -2 18 -8 9 -4 18 -8 8 -4 15 -6 14 -5 10 -4 18 -7 15 -6 11 -4 20 -7 8 -3 18 -6 14 -4 16 -5 13 -4 15 -5 15 -4 20 -6 8 -2 20 -6 14 -3 16 -4 15 -4 17 -4 18 -4 11 -3 22 -4 12 -3 19 -4 16 -3 14 -3 19 -3 15 -3 18 -3 15 -2 21 -3 3 -1 24 -3 4 -1 18 -2 20 -2 10 -1 25 -3 2 0 27 -3 4 0 17 -2 20 -2 8 0 29 -2 1 0 34 -2 1 0 32 -2 3 0 34 -1 2 0 36 -1 1 0 36 0 38 0 0 0 37 1 0 0 37 1 0 0 37 2 0 0 36 2 1 0 36 3 0 0 36 3 0 0 35 3 1 0 35 4 0 0 35 5 0 0 34 5 34 5 2 0 32 6 2 0 32 6 1 0 32 7 2 0 31 7 1 0 31 7zm1156 5361l0 -603 39 603 -39 0z"/>
   <path id="1" class="fil1 str0" d="M9858 7411c0,511 -785,925 -1754,925 -968,0 -1753,-414 -1753,-925m3507 0c0,511 -785,925 -1754,925 -968,0 -1753,-414 -1753,-925m0 -4249c0,-511 785,-925 1753,-925 969,0 1754,414 1754,925m-3507 0l0 4249m3507 -4249l0 4249m0 411c0,511 -785,925 -1754,925 -968,0 -1753,-414 -1753,-925m0 0l0 -611m0 -4049c0,-511 785,-925 1753,-925 969,0 1754,414 1754,925m-3507 0l0 1094m0 1808l0 1347m3507 -4249l0 1094m0 1808l0 1347m0 411c0,511 -785,925 -1754,925 -968,0 -1753,-414 -1753,-925m0 0l0 -611m0 -2955l3507 0 0 1808 -3507 0 0 -1808zm2970 3421c-17,14 -36,28 -56,42l-8 6c-11,7 -23,15 -35,22l-8 6c-12,7 -25,15 -37,22l-9 5 -1 1 -18 9 0 1 -2 0 -20 11 -4 2 -12 6c-21,11 -43,21 -65,31l-3 2c-61,27 -127,51 -196,73l-9 3 -27 8 -2 0 -15 5 -16 4 -16 5 -16 4 -16 4 -16 4 -17 4 -16 4 -3 0 -13 3 -1 0 -17 4 -3 1 -13 3 -17 3 -15 3 -2 0 -18 3 0 1 -14 2 -3 1 -17 2 -1 1 -16 2 0 0 -18 3 -1 0 -15 2 -2 1 -17 2 -7 1 -3 0 -23 4 -18 2 -3 0 -18 2 -12 1 -6 1 -18 2 -5 0 -3 1 -25 2 -16 1 -6 1 -19 1 -3 0 -15 1 -19 1 -3 0 -5 1 -30 1 -2 0 -1 0 -34 1 -2 0 -3 0 -26 1 -7 0 -1 0 -8 0 -30 0 -34 0 -2 0 -1 0 -5 0 -30 -1 -3 0 -2 0 -31 -1 -4 0 -1 0 -30 -1 -6 -1 -12 0 -17 -1 -7 -1 -5 0 -23 -2 -9 -1 -9 0 -24 -2 -3 -1 -7 0 -18 -2 -10 -1 -7 -1 -17 -2 -12 -1 -5 -1 -17 -2 -13 -2 -3 0 -26 -4 -12 -2 -23 -3 -5 -1 -1 0 -16 -3 -17 -3 0 0 -1 0 -30 -6 -1 0 -2 0 -14 -3 -16 -3 -3 -1 -13 -3 -16 -3 -4 -1 -12 -3 -15 -3 -1 -1 -14 -3 -1 0 -15 -4 0 0 -14 -3 -1 -1 -16 -4 -1 0 -14 -4 -15 -4 -15 -4 -14 -5 -10 -3 -5 -1 -15 -5 -4 -1 -10 -3 -15 -5 -1 -1 -13 -4 -14 -5 -14 -5 -14 -5 -2 0 -12 -5 -13 -5 -5 -2 -20 -8 -5 -2 -21 -8 -3 -2 -13 -5 -10 -5 -6 -2 -22 -10 -13 -6 -12 -6 -13 -6 -9 -5 -1 0 -10 -6 -1 0 -16 -9 -2 -1 -10 -5 -9 -5 -10 -6 -2 -1 -16 -9 0 0 -10 -6 -9 -5 -9 -6 -3 -2 -14 -9 -9 -6 -1 0 -7 -6 -9 -5 -17 -12 -8 -6 -13 -10 -3 -2 -8 -6 -7 -6 -8 -6 -1 -1 -6 -5 -8 -6 -7 -7 -7 -6 0 0 -7 -6 -3 -2 -8 -8 -9 -9 -8 -7 -9 -10 -4 -3 -6 -7 -6 -6 -6 -7 -9 -10 -5 -6 -10 -11 -4 -6 -9 -11 -5 -7 -8 -11 -4 -6 0 0 -5 -7 -5 -7 -2 -4 -8 -12 -2 -5 -8 -14 -3 -5 -6 -12 -3 -5 -7 -15 0 -2 -1 -2 -6 -14 -1 -2 -1 -2 -1 -3 -4 -11 -1 -3 0 -2 -5 -14 0 -2 -1 -1 0 -2 -1 -2 -3 -12 -1 -2 0 -1 0 -2 -3 -14 -1 -2 0 -3 -1 -2 -2 -15 0 -1 0 -1 -2 -17 -1 -2 0 0c0,-6 -1,-13 -1,-19l0 0 0 -1 0 0c0,-6 -1,-13 -1,-19 0,-425 653,-769 1457,-769 805,0 1457,344 1457,769 0,6 0,12 0,19l0 1 0 1c-1,6 -1,11 -2,17l0 1 0 1 0 0c0,6 -1,11 -2,17l0 2 0 0 0 2 -3 15 0 2 -1 1 0 2 -3 13 0 2 -1 4 0 0 -1 2 -2 9 -1 2 0 2 -1 2 0 0 0 1 -1 2 -2 8 -1 3 -3 9 -5 12 -1 4 -6 15 -3 5 -5 11 -4 9 -6 11 -3 6 -7 13 -3 5 -7 11 -5 8 -1 1 -4 7 -1 2 -4 5 -5 7 -5 7 0 0 -5 6 0 1 -6 7 -1 1 -8 11 -2 1 -5 7 0 1 -5 5 -1 1 -6 7 -1 1 -11 11 0 1 -6 6 -6 7 -7 6 -2 3 -10 9 -1 1 -7 7 -7 6 -7 6 0 1 -13 10 -1 2 -8 6 -7 6 -8 6zm-619 -5216c31,8 60,15 90,24l5 1 2 1 29 8 1 1 29 9 2 0 28 9 2 1 27 9 2 1 27 10 2 1 26 10 2 1 26 10 27 11 2 1 25 11 23 11 3 1 2 1 23 12 2 1 23 12 2 1 23 12 2 1 22 12 2 2 21 12c13,8 27,17 39,25l5 3 2 2 20 13c12,9 25,18 37,27l3 3 2 2 18 13 0 1c12,9 23,19 34,29l3 2c11,11 22,22 33,33 10,10 19,20 28,30l3 4 11 13 3 3c4,6 9,11 13,16l0 1c13,17 24,34 35,51l1 3c4,6 7,11 10,17l1 1c6,11 12,23 17,35l1 2c8,18 15,36 20,55l1 1c5,18 9,37 12,56l0 1c2,13 4,26 4,39l0 0c1,7 1,13 1,20l0 0 0 3c0,425 -652,769 -1457,769 -804,0 -1457,-344 -1457,-769l0 0 0 -1c0,-5 1,-10 1,-15l0 -1 0 0 0 -1 0 0 0 -1 0 0 0 0 0 -1 0 0 0 -1 0 -1 0 0 0 -1 0 0 1 -9 0 0 0 -1 0 0 0 -1 0 -1 0 0 0 -1c1,-12 3,-25 5,-37l0 -1c3,-12 5,-25 9,-37l0 0c1,-6 3,-12 5,-18l0 -1c2,-5 4,-11 6,-16l1 -3 6 -15 1 -3c3,-6 5,-11 8,-17l0 -1 8 -15 2 -4 7 -13 3 -5 7 -13 3 -4 9 -14 2 -3 10 -15 1 -2 11 -14 3 -5 10 -12 4 -4 11 -14 2 -1 13 -15 2 -2c4,-5 9,-9 13,-14l3 -3 13 -13 4 -4 13 -11 5 -4 13 -12 3 -3 16 -13 1 -1c24,-20 50,-39 78,-57l2 -2c21,-13 42,-27 64,-39l23 -13 1 -1 23 -12 1 -1 23 -12 2 -1 23 -11 20 -10 6 -2 18 -8 9 -4 18 -8 8 -4 15 -6 14 -5 10 -4 18 -7 15 -6 11 -4 20 -7 8 -3 18 -6 14 -4 16 -5 13 -4 15 -5 15 -4 20 -6 8 -2 20 -6 14 -3 16 -4 15 -4 17 -4 18 -4 11 -3 22 -4 12 -3 19 -4 16 -3 14 -3 19 -3 15 -3 18 -3 15 -2 21 -3 3 -1 24 -3 4 -1 18 -2 20 -2 10 -1 25 -3 2 0 27 -3 4 0 17 -2 20 -2 8 0 29 -2 1 0 34 -2 1 0 32 -2 3 0 34 -1 2 0 36 -1 1 0 36 0 38 0 0 0 37 1 0 0 37 1 0 0 37 2 0 0 36 2 1 0 36 3 0 0 36 3 0 0 35 3 1 0 35 4 0 0 35 5 0 0 34 5 34 5 2 0 32 6 2 0 32 6 1 0 32 7 2 0 31 7 1 0 31 7zm1156 5361l0 -603 39 603 -39 0z"/>
  </g>
  <path class="fil1 str0" d="M11872 4479c0,-170 233,-308 521,-308 288,0 522,138 522,308m0 1550l0 -201m-1043 201l0 -204m1043 204c0,169 -234,307 -522,307 -288,0 -521,-138 -521,-307m1043 -1550l0 1413m-1043 -1413l0 1413"/>
  <path class="fil1 str0" d="M11720 3162c0,-511 302,-925 673,-925 372,0 673,414 673,925m0 4660l0 -603m-1346 603l0 -611m1346 611c0,511 -301,925 -673,925 -371,0 -673,-414 -673,-925m1346 -4660l0 4249m-1346 -4249l0 4249"/>
  <g>
   <ellipse class="fil0 str0" cx="12393" cy="4122" rx="1754" ry="925"/>
   <ellipse class="fil0 str0" cx="12393" cy="3965" rx="1457" ry="769"/>
  </g>
  <path class="fil0 str0" d="M16642 4698c831,0 1504,356 1504,794 0,439 -673,794 -1504,794 -831,0 -1505,-355 -1505,-794 0,-438 674,-794 1505,-794zm0 0c690,0 1250,296 1250,660 0,364 -560,659 -1250,659 -691,0 -1250,-295 -1250,-659 0,-364 559,-660 1250,-660z"/>
  <ellipse class="fil0 str0" cx="7517" cy="11427" rx="1505" ry="794"/>
  <ellipse class="fil0 str0" cx="7517" cy="11293" rx="1250" ry="659"/>
  <ellipse class="fil0 str0" cx="13284" cy="11570" rx="1505" ry="794"/>
  <ellipse class="fil0 str0" cx="13284" cy="11436" rx="1250" ry="659"/>
  <rect class="fil0 str1" x="9858" y="14385" width="1043" height="6510"/>
  <path class="fil2 str2" d="M52 8960c6,973 119,1202 560,2028 608,1135 1774,1276 2647,2090 873,813 1504,1872 1944,2707 440,836 634,1461 660,2238 217,6509 119,13025 69,19538 -2,342 28,772 -226,1001 -592,534 -1217,1034 -1776,1602 -108,109 -205,258 -205,412 0,1213 -51,2427 0,3639 7,167 44,366 174,470l2595 2072 3857 0 0 -25862 -493 0 0 -6510 493 0 0 -1076c-911,0 -1789,28 -2698,3 -228,-6 -490,17 -717,-3 -323,-28 -621,-204 -897,-374 -191,-119 -356,-290 -479,-479 -1342,-2077 -2418,-3780 -3128,-5078 -285,-522 -623,-824 -728,-1204 -396,-1436 738,-2210 3978,-3609 1403,-606 2964,-814 4669,-853l0 -1190c-1239,20 -3402,213 -5490,1063 -1843,750 -4738,1811 -4823,4162 -12,323 12,2849 14,3213z"/>
  <path class="fil2 str2" d="M13049 13312c-909,25 -1788,-3 -2698,-3l0 1076 550 0 0 6510 -550 0 0 25862 3857 0 2595 -2072c130,-104 167,-303 174,-470 51,-1212 0,-2426 0,-3639 0,-154 -97,-303 -205,-412 -559,-568 -1184,-1068 -1776,-1602 -254,-229 -224,-659 -226,-1001 -50,-6513 -149,-13029 69,-19538 26,-777 220,-1402 660,-2238 440,-835 1071,-1894 1944,-2707 872,-814 2039,-955 2646,-2090 442,-826 555,-1055 561,-2028 2,-364 25,-2890 14,-3213 -86,-2351 -2980,-3412 -4823,-4162 -2089,-850 -4251,-1043 -5490,-1063l0 1190c1705,39 3265,247 4668,853 3241,1399 4374,2173 3979,3609 -105,380 -443,682 -728,1204 -710,1298 -1786,3001 -3129,5078 -122,189 -287,360 -479,479 -275,170 -574,346 -896,374 -227,20 -489,-3 -717,3z"/>
  <path class="fil3 str2" d="M13284 10776c831,0 1505,356 1505,794 0,439 -674,794 -1505,794 -830,0 -1504,-355 -1504,-794 0,-438 674,-794 1504,-794zm-2933 2533c910,0 1789,28 2698,3 228,-6 490,17 717,-3 322,-28 621,-204 896,-374 192,-119 357,-290 479,-479 1343,-2077 2419,-3780 3129,-5078 285,-522 623,-824 728,-1204 395,-1436 -738,-2210 -3979,-3609 -1403,-606 -2963,-814 -4668,-853 -1705,39 -3266,247 -4669,853 -3240,1399 -4374,2173 -3978,3609 105,380 443,682 728,1204 710,1298 1786,3001 3128,5078 123,189 288,360 479,479 276,170 574,346 897,374 227,20 489,-3 717,3 909,25 1787,-3 2698,-3zm2715 -5898l0 411c0,511 -301,925 -673,925 -371,0 -673,-414 -673,-925l0 -411 0 -2434c-634,-140 -1080,-470 -1080,-855 0,-385 446,-715 1080,-855l0 -105c0,-511 302,-925 673,-925 372,0 673,414 673,925l0 105c635,140 1081,470 1081,855 0,385 -446,715 -1081,855l0 2434zm-3208 -4249l0 1094 0 1808 0 1155 0 192 0 411c0,511 -785,925 -1754,925 -968,0 -1753,-414 -1753,-925l0 -411 0 -1347 0 -1808 0 -1094c0,-511 785,-925 1753,-925 969,0 1754,414 1754,925zm6784 1536c-691,0 -1250,296 -1250,660 0,364 559,659 1250,659 690,0 1250,-295 1250,-659 0,-364 -560,-660 -1250,-660zm1504 794c0,439 -673,794 -1504,794 -831,0 -1505,-355 -1505,-794 0,-438 674,-794 1505,-794 831,0 1504,356 1504,794zm-14042 -950c831,0 1505,355 1505,794 0,438 -674,793 -1505,793 -831,0 -1504,-355 -1504,-793 0,-439 673,-794 1504,-794zm3413 6091c831,0 1504,356 1504,794 0,438 -673,794 -1504,794 -831,0 -1505,-356 -1505,-794 0,-438 674,-794 1505,-794z"/>
  <path class="fil4 str2" d="M4104 4542c831,0 1505,355 1505,794 0,438 -674,793 -1505,793 -831,0 -1504,-355 -1504,-793 0,-439 673,-794 1504,-794zm0 1319c690,0 1250,-295 1250,-660 0,-364 -560,-659 -1250,-659 -690,0 -1250,295 -1250,659 0,365 560,660 1250,660z"/>
  <path class="fil4 str2" d="M11720 7411l0 411c0,511 302,925 673,925 372,0 673,-414 673,-925l0 -411 0 -2434c-49,10 -100,20 -151,29l0 822 0 201c0,169 -234,307 -522,307 -288,0 -521,-138 -521,-307l0 -137 0 -886c-52,-9 -102,-19 -152,-29l0 2434z"/>
  <path class="fil4 str2" d="M12393 3197c239,0 466,25 673,70l0 -105c0,-511 -301,-925 -673,-925 -371,0 -673,414 -673,925l0 105c207,-45 435,-70 673,-70z"/>
  <path class="fil4 str2" d="M16642 4698c-831,0 -1505,356 -1505,794 0,439 674,794 1505,794 831,0 1504,-355 1504,-794 0,-438 -673,-794 -1504,-794zm0 1319c-691,0 -1250,-295 -1250,-659 0,-364 559,-660 1250,-660 690,0 1250,296 1250,660 0,364 -560,659 -1250,659z"/>
  <path class="fil4 str2" d="M9021 11427c0,-438 -673,-794 -1504,-794 -831,0 -1505,356 -1505,794 0,438 674,794 1505,794 831,0 1504,-356 1504,-794zm-254 -134c0,364 -560,659 -1250,659 -690,0 -1250,-295 -1250,-659 0,-364 560,-660 1250,-660 690,0 1250,296 1250,660z"/>
  <path class="fil4 str2" d="M11780 11570c0,439 674,794 1504,794 831,0 1505,-355 1505,-794 0,-438 -674,-794 -1505,-794 -830,0 -1504,356 -1504,794zm1504 525c-690,0 -1249,-295 -1249,-659 0,-364 559,-660 1249,-660 691,0 1250,296 1250,660 0,364 -559,659 -1250,659z"/>
  <path class="fil4 str2" d="M6351 7822c0,511 785,925 1753,925 969,0 1754,-414 1754,-925l0 -411c0,511 -785,925 -1754,925 -968,0 -1753,-414 -1753,-925l0 411z"/>
  <path class="fil4 str2" d="M12393 3197c243,0 472,31 673,87 466,128 784,385 784,681 0,297 -318,554 -784,682 -49,14 -99,26 -151,36 -162,33 -338,51 -522,51 -183,0 -359,-18 -521,-51 -52,-10 -103,-22 -152,-36 -466,-128 -784,-385 -784,-682 0,-296 318,-553 784,-681 202,-56 430,-87 673,-87zm-1753 925c0,385 446,715 1080,855 50,10 100,20 152,29 165,27 340,41 521,41 182,0 357,-14 522,-41 51,-9 102,-19 151,-29 635,-140 1081,-470 1081,-855 0,-385 -446,-715 -1081,-855 -207,-45 -434,-70 -673,-70 -238,0 -466,25 -673,70 -634,140 -1080,470 -1080,855z"/>
  <path class="fil5 str2" d="M12393 6336c-288,0 -521,-138 -521,-307l0 -137 0 -886c-52,-9 -102,-19 -152,-29l0 2234 0 611c0,511 302,925 673,925 372,0 673,-414 673,-925l0 -411 0 -2434c-49,10 -100,20 -151,29l0 822 0 201c0,169 -234,307 -522,307z"/>
  <path class="fil5 str2" d="M11720 3267c207,-45 435,-70 673,-70 239,0 466,25 673,70l0 -105c0,-511 -301,-925 -673,-925 -371,0 -673,414 -673,925l0 105z"/>
  <path class="fil2 str2" d="M8104 3931c805,0 1457,-344 1457,-769 -5,-401 -525,-621 -859,-701 -265,-61 -505,-77 -777,-61 -435,24 -1240,231 -1277,743 0,456 653,788 1456,788z"/>
  <path class="fil2 str2" d="M9557 7312c66,-459 -634,-826 -1453,-826 -829,0 -1566,388 -1445,867 179,708 1923,916 2662,324 116,-93 214,-213 236,-365z"/>
  <path class="fil6 str2" d="M6351 4256l3507 0 0 -1094c0,-511 -785,-925 -1754,-925 -968,0 -1753,414 -1753,925l0 1094zm1753 -325c-803,0 -1456,-332 -1456,-788 37,-512 842,-719 1277,-743 272,-16 512,0 777,61 334,80 854,300 859,701 0,425 -652,769 -1457,769z"/>
  <path class="fil6 str2" d="M9858 6064l-3507 0 0 1347c0,511 785,925 1753,925 969,0 1754,-414 1754,-925l0 -192 0 -1155zm-3199 1289c-121,-479 616,-867 1445,-867 819,0 1519,367 1453,826 -22,152 -120,272 -236,365 -739,592 -2483,384 -2662,-324z"/>
  <path class="fil6 str2" d="M6351 6064l3507 0 0 -1808 -3507 0 0 1808z"/>
  <path class="fil2 str3" d="M9858 14385l0 6510 493 0 550 0 0 -6510 -550 0 -493 0z"/>
  <g>
   <path class="fil0 str0" d="M30576 9209l4477 -6063 -1162 -863 -1475 3364 -3008 2686 1168 876z"/>
   <path class="fil0 str0" d="M39905 17010c219,-622 677,-1220 1245,-1692 564,-468 1251,-824 1928,-964 688,-142 1343,-64 1910,90 531,144 980,355 1295,504 112,52 205,96 285,134l-569 -1173c-1248,-489 -4015,-384 -5536,1084 -1768,1705 -1388,3739 -744,4531l328 -5c-295,-813 -447,-1640 -142,-2509z"/>
   <path class="fil0 str0" d="M41150 15318c-568,472 -1026,1070 -1245,1692 -305,869 -153,1696 142,2509 135,372 301,742 466,1112l1 0 13 27c171,343 588,482 931,310 333,-167 474,-566 323,-903l0 0c-413,-925 -827,-1849 -564,-2597 133,-380 436,-764 820,-1083 397,-330 867,-577 1318,-670 435,-90 876,-34 1269,73 428,116 803,292 1066,417 294,138 458,217 558,265 98,48 139,69 179,90 342,176 761,42 936,-299 176,-341 42,-761 -299,-936 -49,-26 -98,-51 -212,-106 -69,-34 -159,-77 -284,-137 -80,-38 -173,-82 -285,-134 -315,-149 -764,-360 -1295,-504 -567,-154 -1222,-232 -1910,-90 -677,140 -1364,496 -1928,964z"/>
   <path class="fil0 str0" d="M39719 19524c-644,-792 -1024,-2826 744,-4531 1521,-1468 4288,-1573 5536,-1084 11,4 22,9 33,13 474,194 5370,-985 4110,-5137 -612,-2017 -2309,-3418 -3889,-4698 -2205,-1785 -4663,-3138 -7870,-3851l-10622 14182c-707,1887 -1772,3677 -2120,5662 -496,2823 -459,5726 -384,8592 82,3145 579,6266 853,9401 10,111 0,222 0,333l-1706 2052 0 4028 2372 2271 6125 0 5816 -2320 0 -4150 -3186 -2214 0 -15391c52,-1293 749,-1931 2090,-1916l2168 0 -51 -1219c-6,-8 -12,-15 -19,-23z"/>
   <path class="fil0 str0" d="M37364 49l-10261 13812 743 557 10261 -13813 -743 -556z"/>
   <path class="fil0 str0" d="M33584 35414l-5054 0c-346,0 -627,282 -627,627l0 1814c0,345 281,627 627,627l5054 0c346,0 627,-282 627,-627l0 -1814c0,-345 -281,-627 -627,-627z"/>
   <path class="fil0 str0" d="M28530 34957l5054 0c346,0 627,-282 627,-627l0 -3826c0,-345 -281,-627 -627,-627l-5054 0c-346,0 -627,282 -627,627l0 3826c0,345 281,627 627,627z"/>
   <path class="fil0 str0" d="M28530 29413l5054 0c346,0 627,-281 627,-626l0 -3890c0,-346 -281,-627 -627,-627l-5054 0c-346,0 -627,281 -627,627l0 3890c0,345 281,626 627,626z"/>
   <path class="fil0 str0" d="M33696 21467l-5055 -910c-190,-34 -366,13 -513,136 -148,124 -225,289 -225,481l0 2032c0,345 281,627 627,627l5054 0c346,0 627,-282 627,-627l0 -1122c0,-306 -214,-562 -515,-617z"/>
   <path class="fil0 str0" d="M32693 6336l629 -847 -2533 -1879 -631 843 2535 1883z"/>
   <rect class="fil0 str0" transform="matrix(1.60156 -2.13949 2.13949 1.60156 29459.7 5030.27)" width="1053" height="116"/>
   <path class="fil1 str0" d="M29460 5030c-77,-1171 485,-1922 1686,-2252"/>
   <path class="fil1 str0" d="M29460 5030c-77,-1171 485,-1922 1686,-2252"/>
   <g id="_2886304151392">
    <rect class="fil0 str0" transform="matrix(1.60156 -2.13949 2.13949 1.60156 27918.1 12104.1)" width="1053" height="116"/>
    <path class="fil1 str0" d="M27918 12104c-77,-1171 486,-1922 1686,-2253"/>
    <path class="fil1 str0" d="M27918 12104c-77,-1171 486,-1922 1686,-2253"/>
   </g>
   <g id="_2886304149088">
    <g>
     <rect class="fil0 str0" transform="matrix(1.60156 -2.13949 2.13949 1.60156 32358.8 6063.85)" width="1053" height="116"/>
     <path class="fil1 str0" d="M32359 6064c-77,-1171 485,-1922 1686,-2253"/>
     <path class="fil1 str0" d="M32359 6064c-77,-1171 485,-1922 1686,-2253"/>
    </g>
    <path class="fil0 str0" d="M34045 3811c-1201,331 -1763,1082 -1686,2253l1686 -2253z"/>
   </g>
   <circle class="fil1 str2" cx="31057" cy="42708" r="2540"/>
   <g id="_2886304149152">
    <path class="fil1 str2" d="M31057 40169l14 5079"/>
    <path class="fil1 str2" d="M28517 42708l5080 15"/>
    <path class="fil5 str2" d="M31057 40169l7 2547 2533 7c0,-5 0,-10 0,-15 0,-1402 -1137,-2539 -2540,-2539z"/>
    <path class="fil5 str2" d="M31064 42716l-2547 -8c0,1403 1137,2540 2540,2540 5,0 10,0 14,0l-7 -2532z"/>
   </g>
   <path class="fil2 str2" d="M29604 9851c-1200,331 -1763,1082 -1686,2253l1686 -2253z"/>
   <path class="fil2 str2" d="M32547 4914c-111,231 -174,493 -191,786 -6,116 -5,238 3,364l620 -829 1066 -1424c-436,120 -787,296 -1055,526 -190,165 -338,357 -443,577z"/>
   <path class="fil2 str2" d="M38107 605l-10261 13813 -55 -41 -30 41c-707,1887 -1772,3677 -2120,5662 -496,2823 -459,5726 -384,8592 82,3145 579,6266 853,9401 10,111 0,222 0,333l-1706 2052 0 4028 2372 2271 6125 0 5816 -2320 0 -4150 -3186 -2214 0 -15391c52,-1293 749,-1931 2090,-1916l2168 0 -51 -1219 -19 -23c-644,-792 -1024,-2826 744,-4531 1521,-1468 4288,-1573 5536,-1084l33 13c474,194 5370,-985 4110,-5137 -612,-2017 -2309,-3418 -3889,-4698 -2205,-1785 -4663,-3138 -7870,-3851l-276 369zm-3896 29899l0 3826c0,345 -281,627 -627,627l-5054 0c-346,0 -627,-282 -627,-627l0 -3826c0,-345 281,-627 627,-627l5054 0c346,0 627,282 627,627zm-627 4910c346,0 627,282 627,627l0 1814c0,345 -281,627 -627,627l-5054 0c-346,0 -627,-282 -627,-627l0 -1814c0,-345 281,-627 627,-627l5054 0zm-2527 4755c1403,0 2540,1137 2540,2539 0,5 0,10 0,15 -8,1391 -1134,2518 -2526,2525 -4,0 -9,0 -14,0 -1403,0 -2540,-1137 -2540,-2540 0,-1402 1137,-2539 2540,-2539zm-2416 -19612l5055 910c301,55 515,311 515,617l0 1122c0,345 -281,627 -627,627l-5054 0c-346,0 -627,-282 -627,-627l0 -2032c0,-192 77,-357 225,-481 147,-123 323,-170 513,-136zm-111 3713l5054 0c346,0 627,281 627,627l0 3890c0,345 -281,626 -627,626l-5054 0c-346,0 -627,-281 -627,-626l0 -3890c0,-346 281,-627 627,-627z"/>
   <path class="fil7 str2" d="M41150 15318c-568,472 -1026,1070 -1245,1692 -305,869 -153,1696 142,2509 135,372 301,742 466,1112l1 0 13 27c171,343 588,482 931,310 333,-167 474,-566 323,-903l0 0c-413,-925 -827,-1849 -564,-2597 133,-380 436,-764 820,-1083 397,-330 867,-577 1318,-670 435,-90 876,-34 1269,73 428,116 803,292 1066,417 294,138 458,217 558,265 98,48 139,69 179,90 342,176 761,42 936,-299 176,-341 42,-761 -299,-936 -49,-26 -98,-51 -212,-106l-284 -137 -285 -134c-315,-149 -764,-360 -1295,-504 -567,-154 -1222,-232 -1910,-90 -677,140 -1364,496 -1928,964z"/>
   <path class="fil6 str2" d="M29408 8333l1157 868 2128 -2865 -573 -425 -2712 2422z"/>
   <path class="fil6 str2" d="M32990 4337c268,-230 619,-406 1055,-526l248 186 -1065 1422 94 70 4 -5 1727 -2338 -1162 -863 -901 2054z"/>
   <path class="fil6 str2" d="M29708 5216l528 -705 631 -843 527 -705 -248 -185 -1686 2252 248 186z"/>
   <path class="fil6 str2" d="M32979 5235l-620 829 248 185 621 -830 1065 -1422 -248 -186 -1066 1424z"/>
   <path class="fil6 str2" d="M29852 10037l-248 -186 -1686 2253 248 186 1686 -2253z"/>
   <path class="fil2 str2" d="M38107 605l-10261 13813 -55 -41 -30 41c-707,1887 -1772,3677 -2120,5662 -496,2823 -459,5726 -384,8592 82,3145 579,6266 853,9401 10,111 0,222 0,333l-1706 2052 0 4028 2372 2271 6125 0 5816 -2320 0 -4150 -3186 -2214 0 -15391c52,-1293 749,-1931 2090,-1916l2168 0 -51 -1219 -19 -23c-644,-792 -1024,-2826 744,-4531 1521,-1468 4288,-1573 5536,-1084l33 13c474,194 5370,-985 4110,-5137 -612,-2017 -2309,-3418 -3889,-4698 -2205,-1785 -4663,-3138 -7870,-3851l-276 369zm-3896 29899l0 3826c0,345 -281,627 -627,627l-5054 0c-346,0 -627,-282 -627,-627l0 -3826c0,-345 281,-627 627,-627l5054 0c346,0 627,282 627,627zm-627 4910c346,0 627,282 627,627l0 1814c0,345 -281,627 -627,627l-5054 0c-346,0 -627,-282 -627,-627l0 -1814c0,-345 281,-627 627,-627l5054 0zm-2527 4755c1403,0 2540,1137 2540,2539 0,5 0,10 0,15 -8,1391 -1134,2518 -2526,2525 -4,0 -9,0 -14,0 -1403,0 -2540,-1137 -2540,-2540 0,-1402 1137,-2539 2540,-2539zm-2416 -19612l5055 910c301,55 515,311 515,617l0 1122c0,345 -281,627 -627,627l-5054 0c-346,0 -627,-282 -627,-627l0 -2032c0,-192 77,-357 225,-481 147,-123 323,-170 513,-136zm-111 3713l5054 0c346,0 627,281 627,627l0 3890c0,345 -281,626 -627,626l-5054 0c-346,0 -627,-281 -627,-626l0 -3890c0,-346 281,-627 627,-627z"/>
  </g>
 </g>
</svg>
