<?xml version="1.0" encoding="UTF-8"?>
<!DOCTYPE svg PUBLIC "-//W3C//DTD SVG 1.0//EN" "http://www.w3.org/TR/2001/REC-SVG-20010904/DTD/svg10.dtd">
<!-- Creator: CorelDRAW X7 -->
<svg xmlns="http://www.w3.org/2000/svg" xml:space="preserve" width="6.30477in" height="4.91965in" version="1.0" style="shape-rendering:geometricPrecision; text-rendering:geometricPrecision; image-rendering:optimizeQuality; fill-rule:evenodd; clip-rule:evenodd"
viewBox="0 0 2784 2172"
 xmlns:xlink="http://www.w3.org/1999/xlink">
 <defs>
  <style type="text/css">
   <![CDATA[
    .str2 {stroke:#373435;stroke-width:3.06677}
    .str1 {stroke:#373435;stroke-width:3.06677}
    .str0 {stroke:#373435;stroke-width:6.1318;stroke-dasharray:12.263602 30.659006}
    .fil0 {fill:none}
    .fil1 {fill:#FEFEFE}
    .fil2 {fill:black}
    .fil5 {fill:#999999}
    .fil4 {fill:#B3B3B3}
    .fil3 {fill:#E6E6E6}
   ]]>
  </style>
 </defs>
 <g id="Layer_x0020_1">
  <metadata id="CorelCorpID_0Corel-Layer"/>
  <path class="fil0 str0" d="M6 350l111 750 -3 0 0 3c37,80 59,169 110,242 73,103 164,192 256,279 100,96 213,177 319,266 4,3 7,7 11,11l10 117 126 125 144 -3 191 -191 109 -253 -129 -129 -169 30 -479 -479c-38,-42 -37,-84 6,-125l67 -67 -39 -37 -2 0c-44,-4 -120,-56 -118,-164 2,-93 85,-182 139,-206l2 -1c20,-8 136,-198 -32,-288 -82,-43 -179,-34 -268,-25 -124,13 -243,48 -365,125l3 20zm810 1052l119 120c11,10 11,28 0,39l-158 157c-10,11 -28,11 -39,0l-119 -119c-10,-11 -10,-28 0,-39l158 -158c10,-10 28,-10 39,0zm133 173c11,-11 28,-11 39,0l57 56c10,11 10,29 0,39l-158 158c-11,10 -28,10 -39,0l-56 -57c-11,-11 -11,-28 0,-39l157 -157zm69 227c44,-44 115,-44 159,0 0,0 0,0 0,0 43,44 43,114 0,157 0,0 0,1 0,1 -44,43 -115,43 -159,0 -43,-44 -43,-115 0,-158zm-685 -536l185 -129c11,-7 26,-6 36,3l35 35c10,11 10,29 0,39l-158 158c-11,10 -28,10 -39,0l-63 -64c-6,-6 -9,-13 -8,-22 1,-8 5,-15 12,-20zm112 119l157 -157c11,-11 28,-11 39,0l121 121c11,11 11,28 0,39l-157 157c-11,11 -28,11 -39,0l-121 -121c-11,-10 -11,-28 0,-39z"/>
  <path class="fil0 str0" d="M2628 789l-749 110 -1 -3 -2 1c-81,37 -170,59 -242,110 -104,73 -193,164 -280,256 -95,100 -177,213 -266,319 -3,4 -7,7 -10,10l-117 11 -126 125 4 145 190 191 254 108 129 -129 -31 -168 480 -479c42,-39 83,-37 124,5l68 68 36 -40 0 -1c5,-45 56,-120 165,-118 93,2 182,85 206,139l0 1c9,21 198,137 288,-32 44,-82 35,-178 25,-267 -13,-124 -47,-243 -125,-365l-20 3zm-1052 809l-119 120c-11,10 -28,10 -39,0l-157 -158c-11,-11 -11,-28 0,-39l119 -119c10,-11 28,-11 39,0l157 157c11,11 11,29 0,39zm-172 134c10,11 10,28 0,39l-57 56c-11,11 -28,11 -39,0l-157 -157c-11,-11 -11,-28 0,-39l56 -57c11,-10 29,-10 39,0l158 158zm-227 69c44,44 44,115 0,158 0,0 0,1 0,1 -44,43 -114,43 -158,0 0,0 0,-1 0,-1 -44,-43 -44,-114 0,-158 44,-44 114,-44 158,0zm535 -686l129 186c8,11 7,26 -3,35l-35 35c-11,11 -28,11 -39,0l-157 -157c-11,-11 -11,-28 0,-39l63 -63c6,-6 14,-9 22,-8 8,0 15,4 20,11zm-119 112l158 158c10,11 10,28 0,39l-121 121c-11,11 -29,11 -40,0l-157 -157c-11,-11 -11,-29 0,-39l121 -122c11,-10 28,-10 39,0z"/>
  <path class="fil1 str1" d="M1076 405l198 -266 -52 -38 -65 148 -132 118 51 38z"/>
  <path class="fil1 str1" d="M1487 749c10,-28 30,-54 55,-75 25,-20 55,-36 85,-42 30,-6 59,-3 84,4 23,6 43,16 57,22 5,2 9,4 12,6l-25 -52c-55,-21 -176,-17 -243,48 -78,75 -61,165 -33,200l14 -1c-13,-35 -19,-72 -6,-110z"/>
  <path class="fil1 str1" d="M1542 674c-25,21 -45,47 -55,75 -13,38 -7,75 6,110 6,17 14,33 21,49l0 0 1 2c7,15 25,21 40,13 15,-7 21,-25 15,-40l0 0c-18,-40 -37,-81 -25,-114 6,-17 19,-34 36,-48 17,-14 38,-25 58,-29 19,-4 39,-2 56,3 19,5 35,13 47,18 13,7 20,10 24,12 5,2 6,3 8,4 15,8 34,2 41,-13 8,-15 2,-34 -13,-41 -2,-1 -4,-3 -9,-5 -3,-1 -7,-3 -13,-6 -3,-2 -7,-4 -12,-6 -14,-6 -34,-16 -57,-22 -25,-7 -54,-10 -84,-4 -30,6 -60,22 -85,42z"/>
  <path class="fil1 str1" d="M1479 860c-28,-35 -45,-125 33,-200 67,-65 188,-69 243,-48 1,1 1,1 2,1 21,8 236,-43 181,-226 -27,-89 -102,-151 -171,-207 -97,-79 -206,-138 -347,-170l-468 625c-31,83 -78,162 -93,249 -22,124 -20,252 -17,378 4,139 26,276 38,414 0,5 0,10 0,15l-75 90 0 178 104 100 270 0 256 -103 0 -182 -140 -98 0 -677c2,-57 33,-85 92,-85l95 0 -2 -53c0,-1 -1,-1 -1,-1z"/>
  <path class="fil1 str1" d="M1375 2l-451 608 32 25 452 -608 -33 -25z"/>
  <path class="fil1 str1" d="M1209 1559l-223 0c-15,0 -27,13 -27,28l0 80c0,15 12,27 27,27l223 0c15,0 27,-12 27,-27l0 -80c0,-15 -12,-28 -27,-28z"/>
  <path class="fil1 str1" d="M986 1539l223 0c15,0 27,-12 27,-28l0 -168c0,-15 -12,-28 -27,-28l-223 0c-15,0 -27,13 -27,28l0 168c0,16 12,28 27,28z"/>
  <path class="fil1 str1" d="M986 1295l223 0c15,0 27,-12 27,-28l0 -171c0,-15 -12,-27 -27,-27l-223 0c-15,0 -27,12 -27,27l0 171c0,16 12,28 27,28z"/>
  <path class="fil1 str1" d="M1214 945l-223 -40c-8,-1 -16,1 -22,6 -7,5 -10,13 -10,21l0 90c0,15 12,27 27,27l223 0c15,0 27,-12 27,-27l0 -50c0,-13 -9,-24 -22,-27z"/>
  <path class="fil1 str1" d="M1170 279l27 -37 -111 -83 -28 37 112 83z"/>
  <rect class="fil1 str1" transform="matrix(1.60156 -2.13949 2.13949 1.60156 1027.26 221.465)" width="46.3562" height="5.10085"/>
  <path class="fil0 str1" d="M1027 221c-3,-51 22,-84 75,-99"/>
  <path class="fil0 str1" d="M1027 221c-3,-51 22,-84 75,-99"/>
  <g id="_2886306975904">
   <rect class="fil1 str1" transform="matrix(1.60156 -2.13949 2.13949 1.60156 959.392 532.9)" width="46.3562" height="5.10085"/>
   <path class="fil0 str1" d="M959 533c-3,-52 22,-85 75,-99"/>
   <path class="fil0 str1" d="M959 533c-3,-52 22,-85 75,-99"/>
  </g>
  <g id="_2886307612816">
   <g>
    <rect class="fil1 str1" transform="matrix(1.60156 -2.13949 2.13949 1.60156 1154.9 266.969)" width="46.3562" height="5.10085"/>
    <path class="fil0 str1" d="M1155 267c-3,-52 21,-85 74,-99"/>
    <path class="fil0 str1" d="M1155 267c-3,-52 21,-85 74,-99"/>
   </g>
   <path class="fil1 str1" d="M1229 168c-53,14 -77,47 -74,99l74 -99z"/>
  </g>
  <circle class="fil0 str2" cx="1098" cy="1880" r="112"/>
  <g id="_2886307613360">
   <path class="fil0 str2" d="M1098 1768l0 224"/>
   <path class="fil0 str2" d="M986 1880l223 1"/>
   <path class="fil2 str2" d="M1098 1768l0 113 111 0c0,0 0,0 0,-1 0,-61 -50,-112 -111,-112z"/>
   <path class="fil2 str2" d="M1098 1881l-112 -1c0,62 50,112 112,112 0,0 0,0 0,0l0 -111z"/>
  </g>
  <path class="fil3 str2" d="M1034 434c-53,14 -78,47 -75,99l75 -99z"/>
  <path class="fil3 str2" d="M1163 216c-5,11 -7,22 -8,35 -1,5 0,10 0,16l27 -37 47 -62c-19,5 -35,13 -46,23 -9,7 -15,16 -20,25z"/>
  <path class="fil3 str2" d="M1408 27l-452 608 -2 -2 -2 2c-31,83 -78,162 -93,249 -22,124 -20,252 -17,378 4,139 26,276 38,414 0,5 0,10 0,15l-75 90 0 178 104 100 270 0 256 -103 0 -182 -140 -98 0 -677c2,-57 33,-85 92,-85l95 0 -2 -53 -1 -1c-28,-35 -45,-125 33,-200 67,-65 188,-69 243,-48l2 1c21,8 236,-43 181,-226 -27,-89 -102,-151 -171,-207 -97,-79 -206,-138 -347,-170l-12 17zm-172 1316l0 168c0,16 -12,28 -27,28l-223 0c-15,0 -27,-12 -27,-28l0 -168c0,-15 12,-28 27,-28l223 0c15,0 27,13 27,28zm-27 216c15,0 27,13 27,28l0 80c0,15 -12,27 -27,27l-223 0c-15,0 -27,-12 -27,-27l0 -80c0,-15 12,-28 27,-28l223 0zm-111 209c61,0 111,51 111,112 0,1 0,1 0,1 0,61 -50,111 -111,111 0,0 0,0 0,0 -62,0 -112,-50 -112,-112 0,-61 50,-112 112,-112zm-107 -863l223 40c13,3 22,14 22,27l0 50c0,15 -12,27 -27,27l-223 0c-15,0 -27,-12 -27,-27l0 -90c0,-8 3,-16 10,-21 6,-5 14,-7 22,-6zm-5 164l223 0c15,0 27,12 27,27l0 171c0,16 -12,28 -27,28l-223 0c-15,0 -27,-12 -27,-28l0 -171c0,-15 12,-27 27,-27z"/>
  <path class="fil4 str2" d="M1542 674c-25,21 -45,47 -55,75 -13,38 -7,75 6,110 6,17 14,33 21,49l0 0 1 2c7,15 25,21 40,13 15,-7 21,-25 15,-40l0 0c-18,-40 -37,-81 -25,-114 6,-17 19,-34 36,-48 17,-14 38,-25 58,-29 19,-4 39,-2 56,3 19,5 35,13 47,18 13,7 20,10 24,12 5,2 6,3 8,4 15,8 34,2 41,-13 8,-15 2,-34 -13,-41 -2,-1 -4,-3 -9,-5l-13 -6 -12 -6c-14,-6 -34,-16 -57,-22 -25,-7 -54,-10 -84,-4 -30,6 -60,22 -85,42z"/>
  <path class="fil5 str2" d="M1025 367l51 38 94 -126 -26 -19 -119 107z"/>
  <path class="fil5 str2" d="M1183 191c11,-10 27,-18 46,-23l11 8 -47 63 4 3 0 -1 77 -102 -52 -38 -39 90z"/>
  <path class="fil5 str2" d="M1038 230l23 -31 28 -38 23 -31 -10 -8 -75 99 11 9z"/>
  <path class="fil5 str2" d="M1182 230l-27 37 11 8 27 -36 47 -63 -11 -8 -47 62z"/>
  <path class="fil5 str2" d="M1045 442l-11 -8 -75 99 11 8 75 -99z"/>
  <path class="fil3 str2" d="M1408 27l-452 608 -2 -2 -2 2c-31,83 -78,162 -93,249 -22,124 -20,252 -17,378 4,139 26,276 38,414 0,5 0,10 0,15l-75 90 0 178 104 100 270 0 256 -103 0 -182 -140 -98 0 -677c2,-57 33,-85 92,-85l95 0 -2 -53 -1 -1c-28,-35 -45,-125 33,-200 67,-65 188,-69 243,-48l2 1c21,8 236,-43 181,-226 -27,-89 -102,-151 -171,-207 -97,-79 -206,-138 -347,-170l-12 17zm-172 1316l0 168c0,16 -12,28 -27,28l-223 0c-15,0 -27,-12 -27,-28l0 -168c0,-15 12,-28 27,-28l223 0c15,0 27,13 27,28zm-27 216c15,0 27,13 27,28l0 80c0,15 -12,27 -27,27l-223 0c-15,0 -27,-12 -27,-27l0 -80c0,-15 12,-28 27,-28l223 0zm-111 209c61,0 111,51 111,112 0,1 0,1 0,1 0,61 -50,111 -111,111 0,0 0,0 0,0 -62,0 -112,-50 -112,-112 0,-61 50,-112 112,-112zm-107 -863l223 40c13,3 22,14 22,27l0 50c0,15 -12,27 -27,27l-223 0c-15,0 -27,-12 -27,-27l0 -90c0,-8 3,-16 10,-21 6,-5 14,-7 22,-6zm-5 164l223 0c15,0 27,12 27,27l0 171c0,16 -12,28 -27,28l-223 0c-15,0 -27,-12 -27,-28l0 -171c0,-15 12,-27 27,-27z"/>
 </g>
</svg>
