<?xml version="1.0" encoding="UTF-8"?>
<!DOCTYPE svg PUBLIC "-//W3C//DTD SVG 1.0//EN" "http://www.w3.org/TR/2001/REC-SVG-20010904/DTD/svg10.dtd">
<!-- Creator: CorelDRAW X7 -->
<svg xmlns="http://www.w3.org/2000/svg" xml:space="preserve" width="5.8492in" height="3.01915in" version="1.0" style="shape-rendering:geometricPrecision; text-rendering:geometricPrecision; image-rendering:optimizeQuality; fill-rule:evenodd; clip-rule:evenodd"
viewBox="0 0 3689 1904"
 xmlns:xlink="http://www.w3.org/1999/xlink">
 <defs>
  <style type="text/css">
   <![CDATA[
    .str2 {stroke:#373435;stroke-width:4.38049}
    .str4 {stroke:#606062;stroke-width:1.89225}
    .str0 {stroke:#373435;stroke-width:1.89225}
    .str3 {stroke:black;stroke-width:1.89225}
    .str1 {stroke:#373435;stroke-width:52.5609;stroke-linecap:round;stroke-linejoin:round}
    .fil2 {fill:none}
    .fil4 {fill:#FEFEFE}
    .fil1 {fill:#373435}
    .fil5 {fill:black}
    .fil7 {fill:black}
    .fil6 {fill:#272324}
    .fil0 {fill:#606062;fill-rule:nonzero}
    .fil3 {fill:#373435;fill-rule:nonzero}
   ]]>
  </style>
 </defs>
 <g id="Layer_x0020_1">
  <metadata id="CorelCorpID_0Corel-Layer"/>
  <g>
   <path class="fil0" d="M299 535l60 -104 59 89 -119 15zm622 -40l-11 14 0 0 -15 -11 -14 -11 -16 -10 -15 -9 -16 -8 -16 -8 -16 -7 -16 -7 -17 -5 -17 -5 -16 -5 -17 -3 -17 -3 -18 -2 -17 -2 -17 -1 -17 0 -17 0 -17 1 -17 2 -17 2 -17 3 -17 4 -17 4 -16 5 -16 6 -16 6 -16 7 -16 7 -15 8 -15 9 -15 10 -10 -15 15 -10 16 -9 16 -8 16 -8 17 -7 17 -7 17 -6 17 -5 17 -4 17 -4 18 -3 18 -3 17 -1 18 -1 18 -1 18 0 18 1 17 2 18 3 18 3 18 3 17 5 17 5 18 6 17 7 16 7 17 8 16 9 17 9 15 10 16 11 15 12 0 0zm142 524l-17 -7 6 -16 6 -17 4 -16 4 -17 3 -17 3 -17 2 -17 1 -18 1 -17 0 -17 -1 -17 -2 -17 -2 -17 -2 -17 -4 -17 -4 -17 -4 -16 -6 -17 -6 -16 -6 -16 -8 -15 -8 -16 -8 -15 -9 -15 -10 -15 -10 -14 -11 -14 -12 -13 -12 -13 -13 -13 -14 -12 -14 -12 11 -14 15 12 14 13 13 13 13 14 12 14 12 14 10 15 11 15 9 16 9 16 8 16 8 16 7 17 6 17 5 17 5 17 4 17 4 18 3 17 2 18 1 18 1 18 0 17 0 18 -2 18 -2 18 -2 18 -4 17 -4 18 -5 17 -5 18 -6 17z"/>
  </g>
  <g>
   <path class="fil1" d="M631 832c21,0 38,17 38,38 0,21 -17,38 -38,38 -21,0 -38,-17 -38,-38 0,-21 17,-38 38,-38zm2402 80l0 395c5,12 9,24 12,36l0 0 1 0 1 0 0 0 0 0 1 0 0 0 1 0 1 0 0 0 1 0 0 0 1 0 0 0 1 0 1 0 1 0 0 0 1 0 1 0 1 0 1 0 0 0 1 0 1 0 1 0 1 0 1 0 1 0 1 0 0 0 1 0 1 0 1 0 1 0 1 0 1 0 1 0 0 0 1 0 1 0 1 0 1 0 1 0 1 0 1 0 1 0 1 0 1 0 1 0 1 0 1 0 1 -1 2 0 0 0 1 0 1 0 1 0 2 0 1 0 1 0 1 0 1 0 1 0 1 0 1 0 2 0 0 0 1 0 1 0 2 0 1 0 20 0 5 0 32 0 5 0 6 0 1 0c59,0 119,0 134,0l0 -32 0 -351c0,-26 -21,-47 -47,-47l-163 0 -68 0zm-52 304l0 -304 -369 0 0 0c0,50 -13,86 -62,130 -15,13 -50,41 -94,75l123 0c42,-18 88,-28 136,-28 107,0 203,50 266,127zm-90 -15c-49,-37 -110,-59 -176,-59 -21,0 -41,2 -59,5 -19,4 -38,10 -56,18 -5,2 -10,3 -15,4 -95,48 -160,146 -160,259 0,159 130,289 290,289 159,0 289,-130 289,-289 0,-22 -2,-44 -7,-64 -1,-3 -2,-5 -3,-8 -16,-62 -53,-116 -103,-155zm-392 -32l-41 0c-8,0 -16,-1 -23,-5l-41 0c-97,75 -207,156 -233,170 -10,6 -19,10 -27,14l0 117 0 1 245 -2c-1,-12 -2,-24 -2,-36 0,-104 48,-197 122,-259zm-89 -77c4,-6 8,-12 14,-16 19,-15 38,-30 57,-45 15,-13 27,-22 33,-28l1 0c19,-17 30,-31 37,-45 5,-13 8,-26 8,-42 0,-2 0,-3 0,-4 0,-7 1,-14 4,-20 0,-4 -1,-8 -1,-11 -5,-62 -28,-116 -64,-198 -29,-67 -57,-70 -186,-70l-27 0 0 44c86,0 135,4 164,71 23,51 39,90 48,130 0,2 0,5 0,5l0 6c1,12 2,31 -21,48 -3,2 -6,4 -9,6 -3,2 -6,4 -7,5 0,0 -1,1 -1,8 0,5 1,10 1,16 1,26 2,57 -21,76 -33,27 -95,75 -154,119l0 39c42,-31 85,-64 124,-94zm199 -233c1,0 2,0 3,0l652 0c27,0 52,12 70,30 18,18 30,43 30,70l0 351 0 32c-1,29 -23,52 -52,53 -26,0 -78,0 -131,0l-4 0 0 20c0,49 -41,90 -90,90l-44 0c-35,148 -171,260 -328,260 -157,0 -289,-108 -326,-253l-278 1 -276 0c-14,0 -24,-11 -24,-24l0 -102c0,-1 -1,-4 -1,-4l-48 -21c4,21 6,44 6,66 0,186 -151,337 -337,337 -186,0 -337,-151 -337,-337 0,-142 89,-264 214,-313l107 -101c4,-4 10,-6 16,-6l248 0c10,-57 37,-123 71,-187l-569 -193c-8,5 -17,8 -27,8 -6,0 -11,0 -17,-2l-61 -23c-9,-3 -16,-10 -21,-17l-25 49c-1,4 -5,7 -8,10l-170 112 -9 6 -124 82c1,6 2,12 2,18 0,49 -40,90 -90,90 -49,0 -89,-41 -89,-90 0,-50 40,-90 89,-90 7,0 13,1 19,2l97 -127 244 -321c12,-15 31,-22 49,-18l89 17c9,1 17,6 23,12 11,-4 22,-5 33,-1l83 25c14,5 25,15 30,29 1,1 1,3 1,3l617 190c24,-13 50,-16 94,-20l11 0c87,-7 135,-7 231,-7l47 0c126,-1 201,0 244,98 35,79 58,135 66,196zm519 536c-36,0 -66,0 -78,0 1,11 2,21 2,32 0,10 -1,20 -2,29l37 0c23,0 41,-18 41,-41l0 -1 0 -19zm-2435 -589c1,1 3,2 4,4l115 -76 52 -35 1 0 124 -83 0 -1 47 -100c7,-15 22,-25 38,-27l47 -106c0,-1 -1,-2 -1,-2l-89 -17 -210 275 -43 56 -82 108 -3 4zm369 -353c14,-5 21,-21 16,-34 -5,-14 -20,-21 -34,-17 -14,5 -21,21 -16,34 4,11 14,18 25,18 3,0 7,0 9,-1zm369 1004c-16,0 -29,-13 -29,-29 0,-16 13,-29 29,-29 15,0 29,13 29,29 0,16 -13,29 -29,29zm0 -106c-42,0 -77,34 -77,77 0,42 34,76 77,76 42,0 76,-34 76,-76 0,-43 -34,-77 -76,-77zm0 221c-80,0 -144,-65 -144,-144 0,-80 64,-144 144,-144 79,0 143,64 143,144 0,79 -64,144 -143,144zm0 -336c-106,0 -192,86 -192,192 0,105 86,191 192,191 105,0 191,-86 191,-191 0,-106 -86,-192 -191,-192zm1284 221c-16,0 -29,-13 -29,-29 0,-16 13,-29 29,-29 15,0 29,13 29,29 0,16 -13,29 -29,29zm0 -106c-43,0 -77,34 -77,77 0,42 34,76 77,76 42,0 76,-34 76,-76 0,-43 -34,-77 -76,-77zm0 221c-79,0 -144,-65 -144,-144 0,-80 64,-144 144,-144 79,0 143,64 143,144 0,79 -64,144 -143,144zm0 -336c-106,0 -192,86 -192,192 0,105 86,191 192,191 105,0 191,-86 191,-191 0,-106 -86,-192 -191,-192zm-857 221l0 -70c0,-13 -2,-28 -7,-45 19,12 39,19 57,19l143 0c14,0 25,0 35,-2l0 106 -228 0 0 -8 0 0zm-114 -154c-50,-124 -172,-213 -313,-213 -10,0 -20,1 -30,2l39 -37 233 0 0 2c1,47 30,99 60,145 14,23 43,75 61,122l-50 -21 0 0zm-313 414c-160,0 -290,-130 -290,-289 0,-160 130,-290 290,-290 159,0 289,130 289,290 0,159 -130,289 -289,289zm434 -997c44,-62 94,-96 150,-100l10 -1c81,-7 129,-7 214,-7l0 44 -31 0c-56,0 -95,0 -157,6l-8 1c-77,6 -82,12 -137,90 -58,82 -120,206 -119,281 1,42 34,92 61,132 6,9 12,17 17,25 26,42 65,70 96,70l113 0c34,0 47,-1 81,-20 11,-6 44,-29 85,-59l0 39c-49,36 -89,64 -101,71 -36,20 -46,21 -87,21l-143 0c-24,0 -64,-25 -95,-74 -6,-10 -13,-20 -21,-32 -29,-45 -71,-106 -71,-149 -2,-84 71,-233 144,-337l-1 -1zm-655 -132l80 -138 585 179c-14,16 -29,37 -48,64 -18,26 -37,54 -54,85l-563 -190 0 0zm-118 -22l78 -175 0 0 84 27 -101 171 -61 -23 0 0zm1305 434l2 0c-28,23 -70,55 -136,105 -75,56 -120,88 -131,95 -25,14 -29,14 -58,14l-113 0c-7,0 -33,-12 -56,-48 -5,-8 -11,-17 -17,-26 -23,-33 -53,-78 -53,-107 0,-15 3,-33 9,-54l25 -67c21,-46 48,-93 75,-132 31,-44 65,-67 102,-70l8 -1c60,-4 98,-5 153,-5l55 0c114,1 130,7 145,43 21,47 36,83 44,118l0 6c0,2 0,6 -2,7 -2,2 -4,4 -6,5 -12,7 -30,19 -30,53l0 0c0,5 0,10 1,16l-17 48z"/>
   <path id="1" class="fil2 str0" d="M631 832c21,0 38,17 38,38 0,21 -17,38 -38,38 -21,0 -38,-17 -38,-38 0,-21 17,-38 38,-38zm2402 80l0 395c5,12 9,24 12,36l0 0 1 0 1 0 0 0 0 0 1 0 0 0 1 0 1 0 0 0 1 0 0 0 1 0 0 0 1 0 1 0 1 0 0 0 1 0 1 0 1 0 1 0 0 0 1 0 1 0 1 0 1 0 1 0 1 0 1 0 0 0 1 0 1 0 1 0 1 0 1 0 1 0 1 0 0 0 1 0 1 0 1 0 1 0 1 0 1 0 1 0 1 0 1 0 1 0 1 0 1 0 1 0 1 -1 2 0 0 0 1 0 1 0 1 0 2 0 1 0 1 0 1 0 1 0 1 0 1 0 1 0 2 0 0 0 1 0 1 0 2 0 1 0 20 0 5 0 32 0 5 0 6 0 1 0c59,0 119,0 134,0l0 -32 0 -351c0,-26 -21,-47 -47,-47l-163 0 -68 0zm-52 304l0 -304 -369 0 0 0c0,50 -13,86 -62,130 -15,13 -50,41 -94,75l123 0c42,-18 88,-28 136,-28 107,0 203,50 266,127zm-90 -15c-49,-37 -110,-59 -176,-59 -21,0 -41,2 -59,5 -19,4 -38,10 -56,18 -5,2 -10,3 -15,4 -95,48 -160,146 -160,259 0,159 130,289 290,289 159,0 289,-130 289,-289 0,-22 -2,-44 -7,-64 -1,-3 -2,-5 -3,-8 -16,-62 -53,-116 -103,-155zm-392 -32l-41 0c-8,0 -16,-1 -23,-5l-41 0c-97,75 -207,156 -233,170 -10,6 -19,10 -27,14l0 117 0 1 245 -2c-1,-12 -2,-24 -2,-36 0,-104 48,-197 122,-259zm-89 -77c4,-6 8,-12 14,-16 19,-15 38,-30 57,-45 15,-13 27,-22 33,-28l1 0c19,-17 30,-31 37,-45 5,-13 8,-26 8,-42 0,-2 0,-3 0,-4 0,-7 1,-14 4,-20 0,-4 -1,-8 -1,-11 -5,-62 -28,-116 -64,-198 -29,-67 -57,-70 -186,-70l-27 0 0 44c86,0 135,4 164,71 23,51 39,90 48,130 0,2 0,5 0,5l0 6c1,12 2,31 -21,48 -3,2 -6,4 -9,6 -3,2 -6,4 -7,5 0,0 -1,1 -1,8 0,5 1,10 1,16 1,26 2,57 -21,76 -33,27 -95,75 -154,119l0 39c42,-31 85,-64 124,-94zm199 -233c1,0 2,0 3,0l652 0c27,0 52,12 70,30 18,18 30,43 30,70l0 351 0 32c-1,29 -23,52 -52,53 -26,0 -78,0 -131,0l-4 0 0 20c0,49 -41,90 -90,90l-44 0c-35,148 -171,260 -328,260 -157,0 -289,-108 -326,-253l-278 1 -276 0c-14,0 -24,-11 -24,-24l0 -102c0,-1 -1,-4 -1,-4l-48 -21c4,21 6,44 6,66 0,186 -151,337 -337,337 -186,0 -337,-151 -337,-337 0,-142 89,-264 214,-313l107 -101c4,-4 10,-6 16,-6l248 0c10,-57 37,-123 71,-187l-569 -193c-8,5 -17,8 -27,8 -6,0 -11,0 -17,-2l-61 -23c-9,-3 -16,-10 -21,-17l-25 49c-1,4 -5,7 -8,10l-170 112 -9 6 -124 82c1,6 2,12 2,18 0,49 -40,90 -90,90 -49,0 -89,-41 -89,-90 0,-50 40,-90 89,-90 7,0 13,1 19,2l97 -127 244 -321c12,-15 31,-22 49,-18l89 17c9,1 17,6 23,12 11,-4 22,-5 33,-1l83 25c14,5 25,15 30,29 1,1 1,3 1,3l617 190c24,-13 50,-16 94,-20l11 0c87,-7 135,-7 231,-7l47 0c126,-1 201,0 244,98 35,79 58,135 66,196zm519 536c-36,0 -66,0 -78,0 1,11 2,21 2,32 0,10 -1,20 -2,29l37 0c23,0 41,-18 41,-41l0 -1 0 -19zm-2435 -589c1,1 3,2 4,4l115 -76 52 -35 1 0 124 -83 0 -1 47 -100c7,-15 22,-25 38,-27l47 -106c0,-1 -1,-2 -1,-2l-89 -17 -210 275 -43 56 -82 108 -3 4zm369 -353c14,-5 21,-21 16,-34 -5,-14 -20,-21 -34,-17 -14,5 -21,21 -16,34 4,11 14,18 25,18 3,0 7,0 9,-1zm369 1004c-16,0 -29,-13 -29,-29 0,-16 13,-29 29,-29 15,0 29,13 29,29 0,16 -13,29 -29,29zm0 -106c-42,0 -77,34 -77,77 0,42 34,76 77,76 42,0 76,-34 76,-76 0,-43 -34,-77 -76,-77zm0 221c-80,0 -144,-65 -144,-144 0,-80 64,-144 144,-144 79,0 143,64 143,144 0,79 -64,144 -143,144zm0 -336c-106,0 -192,86 -192,192 0,105 86,191 192,191 105,0 191,-86 191,-191 0,-106 -86,-192 -191,-192zm1284 221c-16,0 -29,-13 -29,-29 0,-16 13,-29 29,-29 15,0 29,13 29,29 0,16 -13,29 -29,29zm0 -106c-43,0 -77,34 -77,77 0,42 34,76 77,76 42,0 76,-34 76,-76 0,-43 -34,-77 -76,-77zm0 221c-79,0 -144,-65 -144,-144 0,-80 64,-144 144,-144 79,0 143,64 143,144 0,79 -64,144 -143,144zm0 -336c-106,0 -192,86 -192,192 0,105 86,191 192,191 105,0 191,-86 191,-191 0,-106 -86,-192 -191,-192zm-857 221l0 -70c0,-13 -2,-28 -7,-45 19,12 39,19 57,19l143 0c14,0 25,0 35,-2l0 106 -228 0 0 -8 0 0zm-114 -154c-50,-124 -172,-213 -313,-213 -10,0 -20,1 -30,2l39 -37 233 0 0 2c1,47 30,99 60,145 14,23 43,75 61,122l-50 -21 0 0zm-313 414c-160,0 -290,-130 -290,-289 0,-160 130,-290 290,-290 159,0 289,130 289,290 0,159 -130,289 -289,289zm434 -997c44,-62 94,-96 150,-100l10 -1c81,-7 129,-7 214,-7l0 44 -31 0c-56,0 -95,0 -157,6l-8 1c-77,6 -82,12 -137,90 -58,82 -120,206 -119,281 1,42 34,92 61,132 6,9 12,17 17,25 26,42 65,70 96,70l113 0c34,0 47,-1 81,-20 11,-6 44,-29 85,-59l0 39c-49,36 -89,64 -101,71 -36,20 -46,21 -87,21l-143 0c-24,0 -64,-25 -95,-74 -6,-10 -13,-20 -21,-32 -29,-45 -71,-106 -71,-149 -2,-84 71,-233 144,-337l-1 -1zm-655 -132l80 -138 585 179c-14,16 -29,37 -48,64 -18,26 -37,54 -54,85l-563 -190 0 0zm-118 -22l78 -175 0 0 84 27 -101 171 -61 -23 0 0zm1305 434l2 0c-28,23 -70,55 -136,105 -75,56 -120,88 -131,95 -25,14 -29,14 -58,14l-113 0c-7,0 -33,-12 -56,-48 -5,-8 -11,-17 -17,-26 -23,-33 -53,-78 -53,-107 0,-15 3,-33 9,-54l25 -67c21,-46 48,-93 75,-132 31,-44 65,-67 102,-70l8 -1c60,-4 98,-5 153,-5l55 0c114,1 130,7 145,43 21,47 36,83 44,118l0 6c0,2 0,6 -2,7 -2,2 -4,4 -6,5 -12,7 -30,19 -30,53l0 0c0,5 0,10 1,16"/>
  </g>
  <path class="fil2" d="M3007 912l0 402"/>
  <path class="fil2" d="M2239 656l48 0"/>
  <path class="fil2" d="M2238 705c16,0 32,0 49,0"/>
  <path class="fil2" d="M2239 1123l47 -36"/>
  <path class="fil2" d="M2396 1002l18 -50"/>
  <path class="fil2 str1" d="M2071 1064l213 0 13 -250"/>
  <rect class="fil1 str0" x="2164" y="1104" width="48.3965" height="69.4968"/>
  <g>
   <g>
    <path class="fil3 str0" d="M809 691c-48,-48 -112,-73 -176,-73 -63,0 -127,25 -176,73 -48,49 -72,112 -72,176 0,64 24,127 72,176 49,48 113,73 176,73 64,0 128,-25 176,-73 49,-49 73,-112 73,-176 0,-64 -24,-127 -73,-176zm-176 -87c68,0 135,26 186,77 51,51 77,119 77,186 0,67 -26,135 -77,186 -51,51 -118,77 -186,77 -67,0 -134,-26 -186,-77 -51,-51 -77,-119 -77,-186 0,-67 26,-135 77,-186 52,-51 119,-77 186,-77z"/>
    <path class="fil3 str0" d="M652 822c-6,-3 -13,-4 -20,-4 -6,0 -13,2 -19,4l-5 3 -3 -4 -90 -90 -6 -5 6 -5c34,-28 76,-42 117,-42 42,0 83,13 118,41l6 4 -6 6 -90 90 -3 4 -5 -2zm-20 -18c7,0 15,1 21,3l82 -81c-31,-22 -67,-33 -103,-33 -36,0 -71,12 -102,34l81 81c7,-3 14,-4 21,-4z"/>
    <path class="fil3 str0" d="M678 888c3,-7 5,-14 4,-22 0,-7 -2,-15 -5,-21l-2 -5 3 -4 90 -89 5 -6 5 6c29,35 43,77 43,119 0,42 -13,84 -41,119l-5 6 -6 -5 -90 -90 -3 -4 2 -4zm18 -22c1,8 -1,16 -3,23l80 81c23,-31 34,-67 34,-104 0,-36 -12,-73 -35,-103l-80 80c3,7 4,15 4,23z"/>
    <path class="fil3 str0" d="M611 911c7,3 14,5 21,5 8,0 15,-1 22,-4l5 -3 3 4 90 90 5 5 -6 5c-34,28 -77,42 -119,42 -42,0 -84,-15 -118,-43l-6 -5 5 -5 90 -90 3 -4 5 3zm21 19c-8,0 -15,-2 -23,-5l-80 81c30,23 67,35 103,35 37,0 73,-11 104,-34l-81 -81c-7,3 -15,4 -23,4z"/>
    <path class="fil3 str0" d="M486 983c-27,-34 -41,-75 -41,-117 1,-41 15,-83 42,-117l5 -6 6 5 89 90 4 4 -2 4c-3,7 -5,13 -5,20 0,7 1,14 4,20l2 5 -3 3 -91 90 -5 6 -5 -7zm-26 -117c-1,36 10,72 32,102l81 -81c-2,-7 -3,-14 -3,-21 0,-7 2,-14 4,-21l-81 -81c-22,30 -33,66 -33,102z"/>
    <path class="fil3 str0" d="M668 902c10,-10 14,-22 14,-35 0,-13 -4,-25 -14,-35 -10,-9 -22,-14 -35,-14 -12,0 -25,5 -34,14 -10,10 -15,22 -15,35 0,13 5,25 15,35 9,9 22,14 34,14 13,0 25,-5 35,-14zm29 -35c0,16 -7,32 -19,45 -12,12 -29,18 -45,18 -16,0 -32,-6 -44,-18 -13,-13 -19,-29 -19,-45 0,-16 6,-32 19,-45 12,-12 28,-18 44,-18 16,0 33,6 45,18 12,13 19,29 19,45z"/>
    <path class="fil3 str0" d="M469 645l-64 -92 11 -8 65 92 -12 8z"/>
    <path class="fil3 str0" d="M510 620l-47 -102 13 -6 47 102 -13 6z"/>
    <path class="fil3 str0" d="M555 602l-29 -108 14 -4 29 109 -14 3z"/>
    <path class="fil3 str0" d="M602 593l-10 -112 15 -1 9 112 -14 1z"/>
    <path class="fil3 str0" d="M650 592l10 -112 14 1 -10 112 -14 -1z"/>
    <path class="fil3 str0" d="M698 599l29 -109 14 4 -30 108 -13 -3z"/>
    <path class="fil3 str0" d="M743 614l48 -102 13 6 -48 102 -13 -6z"/>
    <path class="fil3 str0" d="M786 637l64 -92 12 8 -65 92 -11 -8z"/>
    <path class="fil3 str0" d="M823 667l80 -79 10 10 -80 79 -10 -10z"/>
    <path class="fil3 str0" d="M855 703l92 -64 8 11 -92 65 -8 -12z"/>
    <path class="fil3 str0" d="M880 744l102 -47 6 12 -102 48 -6 -13z"/>
    <path class="fil3 str0" d="M898 789l108 -29 4 13 -108 29 -4 -13z"/>
    <path class="fil3 str0" d="M907 836l112 -10 2 14 -112 10 -2 -14z"/>
    <path class="fil3 str0" d="M909 884l112 10 -2 14 -112 -10 2 -14z"/>
    <path class="fil3 str0" d="M901 932l109 29 -4 13 -108 -29 3 -13z"/>
    <path class="fil3 str0" d="M886 977l102 48 -6 12 -102 -47 6 -13z"/>
    <path class="fil3 str0" d="M863 1019l92 65 -8 11 -92 -64 8 -12z"/>
    <path class="fil3 str0" d="M833 1057l80 79 -10 10 -80 -79 10 -10z"/>
    <path class="fil3 str0" d="M797 1089l65 92 -12 8 -64 -92 11 -8z"/>
    <path class="fil3 str0" d="M756 1114l48 102 -13 6 -48 -102 13 -6z"/>
    <path class="fil3 str0" d="M711 1132l30 108 -14 4 -29 -109 13 -3z"/>
    <path class="fil3 str0" d="M664 1141l10 112 -14 1 -10 -112 14 -1z"/>
    <path class="fil3 str0" d="M616 1142l-9 112 -15 -1 10 -112 14 1z"/>
    <path class="fil3 str0" d="M569 1135l-29 109 -14 -4 29 -108 14 3z"/>
    <path class="fil3 str0" d="M523 1120l-47 102 -13 -6 47 -102 13 6z"/>
    <path class="fil3 str0" d="M481 1097l-65 92 -11 -8 64 -92 12 8z"/>
    <path class="fil3 str0" d="M443 1067l-79 79 -10 -10 79 -79 10 10z"/>
    <path class="fil3 str0" d="M411 1031l-92 64 -8 -11 92 -65 8 12z"/>
    <path class="fil3 str0" d="M386 990l-101 47 -6 -12 101 -48 6 13z"/>
    <path class="fil3 str0" d="M369 945l-109 29 -3 -13 108 -29 4 13z"/>
    <path class="fil3 str0" d="M359 898l-112 10 -1 -14 112 -10 1 14z"/>
    <path class="fil3 str0" d="M358 850l-112 -10 1 -14 112 10 -1 14z"/>
    <path class="fil3 str0" d="M365 802l-108 -29 3 -13 109 29 -4 13z"/>
    <path class="fil3 str0" d="M380 757l-101 -48 6 -12 101 47 -6 13z"/>
    <path class="fil3 str0" d="M403 715l-92 -65 8 -11 92 64 -8 12z"/>
    <path class="fil3 str0" d="M433 677l-79 -79 10 -10 79 79 -10 10z"/>
   </g>
   <path class="fil1 str0" d="M445 866c1,-41 15,-83 42,-117l5 -6 6 5 65 65c5,-6 11,-11 18,-16l-66 -66 -6 -5 6 -5c34,-28 76,-42 117,-42 29,0 57,6 84,19l31 -42 6 -7c-37,-20 -78,-31 -120,-31 -63,0 -127,25 -176,73 -48,49 -72,112 -72,176 0,64 24,127 72,176 49,48 113,73 176,73 64,0 128,-25 176,-73 49,-49 73,-112 73,-176 0,-36 -8,-73 -24,-106l-6 4 -9 6 -36 24c9,23 14,47 14,71 0,42 -13,84 -41,119l-5 6 -6 -5 -64 -64c-4,7 -10,13 -16,18l63 63 5 5 -6 5c-34,28 -77,42 -119,42 -42,0 -84,-15 -118,-43l-6 -5 5 -5 62 -62c-7,-5 -12,-11 -17,-18l-62 62 -5 6 -5 -7c-27,-34 -41,-75 -41,-117z"/>
  </g>
  <path class="fil4 str2" d="M865 699l124 -83 0 -1 47 -100c7,-15 22,-25 38,-27l47 -106c0,-1 -1,-2 -1,-2l-89 -17 -210 275 -43 56 -82 108 -3 4 4 4 115 -76 52 -35 1 0zm197 -246c-2,1 -6,1 -9,1 -11,0 -21,-7 -25,-18 -5,-13 2,-29 16,-34 14,-4 29,3 34,17 5,13 -2,29 -16,34z"/>
  <path class="fil1 str0" d="M2104 1219l-131 14 -96 -60 -8 0 -45 -163c8,-7 17,-10 27,-10l180 0c10,0 66,3 73,10l0 209zm-77 -231l0 6 -42 0 0 -6 42 0zm-27 -9l12 0 0 3 -12 0 0 -3zm-15 -8l10 -5c1,-1 2,-2 2,-3l-5 -27c-1,-7 -4,-13 -9,-18l-19 -19c0,0 0,-1 0,-1 0,-1 0,-1 0,-1l10 -5c4,-2 9,-1 13,2l16 16c4,4 7,10 7,16l5 38c0,1 1,2 2,2l16 6 0 0 -48 0 0 -1zm-9 -44l0 -8 3 3c1,2 2,3 3,5l-6 0zm20 -36l-2 1 -2 -1 2 -2 2 2zm10 10l5 5 -2 2c-1,-1 -1,-2 -2,-3l-3 -2 2 -2zm103 106c-8,-8 -65,-13 -76,-13l0 -9c0,-2 -1,-3 -3,-3l-12 0 0 -3 18 0c2,0 3,-2 3,-4l0 -6c0,-1 -1,-2 -2,-2l-16 -6 -5 -36c0,-4 -2,-8 -4,-12l5 -5c1,-1 1,-3 0,-4l-9 -9c-1,-2 -3,-2 -4,0l-4 4 -2 -2 4 -4c1,-1 1,-3 0,-4l-6 -6c-1,-2 -3,-2 -4,0l-5 4c-5,-3 -10,-3 -16,-1l-9 5c-3,1 -4,3 -4,6 -1,2 0,5 2,6l10 10 0 17c0,2 1,3 3,3l12 0c1,1 1,3 1,4l4 25 -10 5c-1,0 -1,1 -1,2l0 6c0,2 1,4 3,4l12 0 0 3 -12 0c-2,0 -2,10 -2,12l-131 0c-11,0 -22,5 -30,13 0,0 -1,1 -1,2l45 171c0,2 1,3 3,3l6 0 100 59 135 -14c2,0 3,-1 3,-3l0 -216c0,-1 0,-2 -1,-2z"/>
  <g>
   <path class="fil5 str3" d="M1939 1043c0,10 8,18 19,18 10,0 18,-8 18,-18 0,-11 -8,-19 -18,-19 -11,0 -19,8 -19,19zm34 0c0,8 -7,15 -15,15 -9,0 -15,-7 -15,-15 0,-9 6,-15 15,-15 8,0 15,6 15,15z"/>
   <path class="fil5 str3" d="M1953 1042c0,2 2,4 2,4l0 5c0,1 1,2 2,2 2,0 3,-1 3,-2l0 -4c1,-1 2,-3 2,-5 0,-2 -2,-4 -4,-4 -3,0 -5,2 -5,4z"/>
   <path class="fil5 str3" d="M1982 1071c-2,0 -4,2 -4,4 0,3 2,4 4,4 2,0 4,-1 4,-4 0,-2 -2,-4 -4,-4z"/>
   <path class="fil5 str3" d="M1982 1061c-5,0 -9,3 -12,7l-35 0c-1,0 -1,0 -2,0l-5 5c0,1 0,2 0,3l5 5c0,1 1,1 1,1l7 0c1,0 2,-1 2,-2l0 -1 3 0 0 1c0,1 1,2 2,2l7 0c2,0 2,-1 2,-2l0 -1 3 0 0 2c0,1 1,2 2,2l8 0c3,4 7,6 12,6 8,0 14,-6 14,-14 0,-7 -6,-14 -14,-14zm0 25c-4,0 -7,-2 -9,-6 0,0 -1,-1 -2,-1l-7 0 0 -2c0,-1 -1,-2 -2,-2l-7 0c-1,0 -1,1 -1,2l0 2 -4 0 0 -2c0,-1 -1,-2 -2,-2l-7 0c-1,0 -2,1 -2,2l0 2 -4 0 -3 -4 3 -3 36 0c1,0 2,-1 2,-1 2,-3 5,-6 9,-6 5,0 10,5 10,10 0,6 -5,11 -10,11z"/>
  </g>
  <g>
   <path class="fil5 str3" d="M1970 1133c-3,2 -18,9 -20,11 -3,3 -3,7 -1,10 2,2 4,3 6,3 2,0 3,-1 5,-2 2,-2 11,-16 12,-19 1,-1 1,-1 0,-2 0,-1 -1,-1 -2,-1zm-13 19c-1,1 -1,1 -2,1 -1,0 -2,-1 -3,-1 -1,-2 -1,-4 0,-5 1,-1 7,-4 13,-7 -3,6 -7,11 -8,12z"/>
   <path class="fil5 str3" d="M1956 1110c-22,0 -40,17 -40,39 0,9 4,18 10,25 0,1 1,1 1,1 1,0 1,0 1,0 7,-4 17,-7 28,-7 10,0 20,3 27,7 1,0 2,0 2,-1 6,-7 10,-16 10,-25 0,-22 -18,-39 -39,-39zm27 61c-7,-4 -17,-7 -27,-7 -11,0 -21,3 -28,7 -5,-7 -8,-14 -8,-22 0,-19 16,-35 36,-35 19,0 35,16 35,35 0,8 -3,15 -8,22z"/>
   <path class="fil5 str3" d="M1956 1126c1,0 1,-1 1,-2l0 -5c0,-1 0,-2 -1,-2 -2,0 -2,1 -2,2l0 5c0,1 0,2 2,2z"/>
   <path class="fil5 str3" d="M1978 1149c0,1 1,2 2,2l5 0c1,0 2,-1 2,-2 0,-1 -1,-2 -2,-2l-5 0c-1,0 -2,1 -2,2z"/>
   <path class="fil5 str3" d="M1933 1149c0,-1 -1,-2 -2,-2l-5 0c-1,0 -2,1 -2,2 0,1 1,2 2,2l5 0c1,0 2,-1 2,-2z"/>
   <path class="fil5 str3" d="M1976 1135c-1,1 -1,2 -1,3 0,0 1,1 2,1 0,0 0,0 1,-1l4 -2c1,-1 2,-2 1,-3 -1,-1 -2,-1 -3,-1l-4 3z"/>
   <path class="fil5 str3" d="M1933 1160l-4 2c-1,1 -1,2 -1,3 0,1 1,1 2,1 0,0 0,0 1,0l4 -3c1,0 2,-2 1,-3 -1,0 -2,-1 -3,0z"/>
   <path class="fil5 str3" d="M1967 1130c0,0 1,0 1,0 1,0 1,-1 2,-1l2 -5c1,-1 0,-2 -1,-2 -1,-1 -2,-1 -2,0l-3 5c0,1 0,2 1,3z"/>
   <path class="fil5 str3" d="M1943 1122c-1,-1 -2,-1 -3,0 -1,0 -1,1 -1,2l3 5c0,1 1,1 2,1 0,0 0,0 1,0 1,-1 1,-2 0,-3l-2 -5z"/>
   <path class="fil5 str3" d="M1936 1135l-5 -2c-1,-1 -2,-1 -2,0 -1,1 -1,2 0,3l5 3c0,0 0,0 1,0 0,0 1,0 1,-1 1,-1 1,-2 0,-3z"/>
   <path class="fil5 str3" d="M1983 1162l-5 -2c-1,-1 -2,-1 -2,0 -1,1 -1,3 0,3l5 3c0,0 1,0 1,0 1,0 1,0 2,-1 0,-1 0,-2 -1,-3z"/>
  </g>
  <g>
   <path class="fil5 str3" d="M2038 1134c3,2 18,9 21,11 3,3 3,8 0,11 -1,2 -3,3 -5,3 -2,0 -4,-1 -5,-2 -3,-2 -12,-17 -14,-20 0,0 0,-1 0,-2 1,-1 2,-1 3,-1zm13 20c1,0 2,1 3,1 1,0 2,-1 2,-1 2,-2 2,-4 0,-5 -1,-1 -7,-5 -13,-8 3,6 7,12 8,13z"/>
   <path class="fil5 str3" d="M2053 1110c22,0 41,18 41,41 0,9 -4,19 -10,26 0,1 -1,1 -2,1 0,0 0,0 -1,0 -7,-5 -17,-7 -28,-7 -11,0 -21,2 -29,7 -1,0 -2,0 -2,-1 -7,-7 -10,-17 -10,-26 0,-23 18,-41 41,-41zm-29 63c8,-4 18,-6 29,-6 11,0 21,2 29,6 5,-6 8,-14 8,-22 0,-21 -17,-37 -37,-37 -20,0 -37,16 -37,37 0,8 3,16 8,22z"/>
   <path class="fil5 str3" d="M2053 1127c-1,0 -2,-1 -2,-2l0 -5c0,-2 1,-2 2,-2 1,0 2,0 2,2l0 5c0,1 -1,2 -2,2z"/>
   <path class="fil5 str3" d="M2029 1151c0,1 -1,2 -2,2l-5 0c-1,0 -2,-1 -2,-2 0,-1 1,-2 2,-2l5 0c1,0 2,1 2,2z"/>
   <path class="fil5 str3" d="M2076 1151c0,-1 1,-2 3,-2l5 0c1,0 2,1 2,2 0,1 -1,2 -2,2l-5 0c-2,0 -3,-1 -3,-2z"/>
   <path class="fil5 str3" d="M2032 1136c1,1 1,2 0,3 0,1 -1,1 -1,1 -1,0 -1,0 -1,0l-5 -3c-1,-1 -1,-2 -1,-3 1,-1 2,-1 3,-1l5 3z"/>
   <path class="fil5 str3" d="M2076 1162l5 3c1,0 1,2 0,3 0,0 -1,1 -1,1 -1,0 -1,-1 -1,-1l-5 -2c-1,-1 -1,-2 -1,-3 1,-1 2,-2 3,-1z"/>
   <path class="fil5 str3" d="M2041 1130c0,1 -1,1 -1,1 -1,0 -1,-1 -2,-1l-3 -5c0,-1 0,-2 1,-3 1,0 2,0 3,1l3 5c0,1 0,2 -1,2z"/>
   <path class="fil5 str3" d="M2066 1123c1,-1 2,-1 3,-1 1,1 1,2 1,3l-3 5c0,0 -1,1 -2,1 0,0 -1,0 -1,0 -1,-1 -1,-2 -1,-3l3 -5z"/>
   <path class="fil5 str3" d="M2073 1136l5 -2c1,-1 2,-1 3,0 1,1 0,3 -1,3l-4 3c-1,0 -1,0 -1,0 -1,0 -2,0 -2,-1 -1,-1 -1,-2 0,-3z"/>
   <path class="fil5 str3" d="M2024 1165l5 -3c1,-1 2,0 3,1 0,1 0,2 -1,2l-5 3c0,0 0,0 -1,0 -1,0 -1,0 -2,-1 0,-1 0,-2 1,-2z"/>
  </g>
  <g>
   <g>
    <path class="fil0" d="M444 1741l1864 0 0 52 -1864 0 0 -52zm22 163l-250 -137 250 -137 0 274z"/>
   </g>
   <g>
    <path class="fil0" d="M3461 1793l-1298 0 0 -52 1298 0 0 52zm-21 -163l249 137 -249 137 0 -274z"/>
   </g>
  </g>
  <g>
   <path class="fil0" d="M942 1216l-67 99 -53 -93 120 -6zm-623 -4l12 -13 0 0 13 13 15 11 14 11 15 10 15 10 15 8 16 9 16 7 16 7 16 6 17 5 17 5 16 4 17 4 17 3 17 2 17 1 17 1 18 0 17 0 17 -1 17 -2 17 -3 17 -3 17 -4 16 -4 17 -5 16 -6 16 -7 16 -7 16 -7 15 -9 9 16 -16 8 -17 8 -16 8 -17 6 -17 6 -17 6 -17 4 -18 4 -17 4 -18 2 -18 2 -17 1 -18 1 -18 0 -18 -1 -18 -2 -17 -2 -18 -3 -18 -4 -17 -4 -17 -5 -17 -5 -17 -7 -17 -7 -17 -8 -16 -8 -16 -9 -16 -10 -15 -11 -15 -11 -15 -12 -14 -13 0 0zm-105 -532l15 7 -7 16 -6 17 -6 16 -5 17 -4 16 -4 17 -3 17 -3 17 -1 17 -1 17 -1 18 0 17 1 17 2 17 2 17 3 17 3 17 5 16 4 17 6 16 6 17 7 16 7 15 8 16 9 15 10 15 10 15 10 14 12 14 12 13 12 14 14 12 -12 13 -14 -13 -13 -14 -13 -14 -11 -14 -12 -15 -10 -15 -10 -16 -9 -16 -8 -16 -8 -16 -7 -17 -7 -17 -5 -17 -5 -17 -5 -17 -3 -18 -3 -17 -3 -18 -1 -18 -1 -18 0 -17 0 -18 1 -18 2 -18 3 -18 3 -17 4 -18 4 -17 6 -17 6 -17 6 -17 8 -17z"/>
  </g>
  <path class="fil2" d="M0 1395c102,20 179,111 179,219 0,108 -77,198 -179,219"/>
  <g>
   <path class="fil0" d="M1267 902l0 -167 27 0 0 167 -27 0zm82 -11l-69 125 -68 -125 137 0z"/>
  </g>
  <g>
   <path class="fil0" d="M1309 114l0 200 -26 0 0 -200 26 0zm-82 11l69 -125 69 125 -138 0z"/>
  </g>
  <g id="ISO_PTO.cdr">
   <path class="fil6 str4" d="M2802 955l0 77c0,2 4,1 7,1 3,0 2,-2 2,-8l0 -64c0,-5 0,-6 5,-6l-1 0c41,0 81,0 121,0 2,0 3,0 4,1 1,1 2,2 1,4 0,8 0,70 1,73 2,0 6,0 9,0l0 -72c0,-2 0,-4 0,-6 -1,-5 -4,-9 -10,-9 -43,0 -87,0 -130,0 -2,0 -3,0 -4,0 -3,2 -5,5 -5,9z"/>
   <path class="fil6 str4" d="M2898 1013c0,-1 1,-2 2,-4 0,-2 -1,-1 1,-3l9 0 0 -9 -9 0c-1,-1 -1,-2 -1,-3l-1 -4c0,0 0,0 0,0 -3,-3 -2,-2 3,-8l1 -1c0,-1 -2,-3 -3,-3 -1,-1 -2,-2 -3,-3 -2,0 -6,6 -7,6 0,0 -3,-2 -4,-3l-5 -1 0 -9 -9 0c0,2 0,8 0,9l-7 2c-1,1 -2,1 -2,1 -2,1 -5,-4 -8,-5l-4 4c-1,1 -1,1 -1,1 0,0 0,0 0,0l-1 1c1,0 7,6 7,7l-1 0c-1,3 -2,3 -3,9 -2,0 -7,0 -9,0 -1,1 -1,4 -1,7 0,1 0,1 1,2 1,1 7,0 9,0 0,1 0,2 1,5 0,1 0,1 1,1 2,5 4,2 -3,8 0,1 -1,1 -1,1 0,1 0,1 -1,1 3,3 4,4 6,6 2,0 3,-1 4,-3 1,0 1,-1 2,-1 0,-1 0,-1 0,-1 3,-3 2,1 8,2 2,1 2,1 3,1l0 9 9 0 0 -9c2,-1 1,0 5,-1l2 -2c0,0 1,-1 2,-1 1,0 3,2 4,3 1,1 2,3 3,3 2,-2 4,-3 6,-5l0 -1c-1,-1 -5,-5 -6,-6l1 -3zm-22 -27c-2,0 -2,-1 -3,0 -1,1 -2,0 -3,1 -6,3 -10,8 -10,14 0,3 1,5 2,7l1 2c1,2 1,2 3,3 0,1 0,1 1,1 8,6 18,4 23,-5 1,0 0,0 1,-1 2,-5 1,-11 -2,-16 -1,-2 -5,-5 -7,-6 -2,0 -4,0 -6,0z"/>
   <path class="fil6 str4" d="M2841 1073c1,0 3,-1 4,-2 0,-2 -9,-17 -9,-20l0 0c1,1 0,1 1,1 3,2 6,4 10,6 1,1 1,0 1,1l7 3c8,3 17,4 25,3 4,0 12,-1 16,-3l6 -2c3,-2 9,-5 11,-6 1,-2 3,-2 4,-4 4,-3 5,-3 3,-5 -1,-1 -1,-1 -2,-2l-1 1c-1,1 0,1 -2,2 -2,1 -6,5 -8,6l-12 6c-5,1 -4,1 -9,2l-6 1c-2,0 -4,0 -7,0 -2,0 -3,-1 -6,-1 -2,0 -6,-1 -8,-2 0,0 -3,-1 -5,-2 -3,-1 -5,-2 -8,-3 -1,-1 -2,-1 -4,-3 -1,0 -1,-1 -2,-1 -1,-1 -2,-1 -2,-3 3,0 9,0 12,1l8 0c0,0 1,0 1,0 2,0 2,0 2,-2 0,-3 -1,-2 -9,-3 -3,0 -6,0 -9,0 -3,-1 -6,0 -9,-1 -3,0 -5,-1 -9,0 0,1 4,8 5,10 0,0 0,0 0,1l11 21zm57 -60c2,-1 3,-5 3,-7 1,0 3,0 5,0l3 0c0,0 1,0 1,0 1,-1 0,-8 0,-9 -1,-1 -7,-1 -9,-1 0,-1 0,-2 -1,-2 0,1 0,2 1,3l9 0 0 9 -9 0c-2,2 -1,1 -1,3 -1,2 -2,3 -2,4z"/>
  </g>
  <g id="ISO_Engine.cdr">
   <path class="fil7 str4" d="M3269 971c-1,0 -1,0 -1,-1 -1,-1 0,-25 -1,-28 -1,0 -60,0 -63,0l0 29c0,0 -1,1 -1,1l-4 4c-2,1 -6,6 -7,9l-6 11c0,2 -1,2 -1,3l-1 5c0,1 0,1 0,1 -1,3 -1,11 -1,13 1,3 1,3 1,5 1,4 2,9 4,12 0,1 0,1 1,2l3 5c1,2 2,4 4,6 3,3 9,9 13,11 1,0 1,0 2,1 4,2 7,3 11,4 2,1 11,2 14,2 5,0 14,-1 18,-3 1,0 1,0 2,-1 1,0 6,-2 8,-4 3,-1 7,-5 9,-7l5 -5c2,-3 3,-5 4,-7l2 -2c0,0 0,-1 0,-1l0 0c1,-2 4,-10 4,-12 1,-6 1,-1 1,-10 0,-6 0,-6 -1,-12 0,-1 0,-1 0,-2 -1,-3 0,0 -1,-3 0,0 -1,-1 -1,-1l-1 -4c-1,-1 -1,-2 -2,-4 0,0 0,0 0,0l-2 -3c0,0 0,-1 -1,-2l-1 -1c0,-1 0,0 -1,-1 0,0 0,0 0,0 -3,-3 -5,-7 -9,-10zm-56 5c-2,1 -7,4 -10,8l-4 5c-1,3 -2,3 -3,5 -1,2 -3,8 -3,11 -1,2 0,3 -1,5 -1,3 1,14 2,16 0,2 2,5 2,7l1 0c0,0 0,0 0,0 1,2 1,4 3,6 3,3 5,6 9,9 2,2 6,4 8,5 2,1 1,0 2,1 1,1 7,3 9,3 5,0 2,0 8,0 7,0 5,0 9,0 0,0 1,0 2,-1 1,0 6,-2 8,-3 7,-3 12,-7 17,-13l4 -7c3,-7 5,-15 4,-23 0,-4 -1,-11 -3,-15 -3,-4 -4,-7 -8,-11 0,-1 -1,-1 -2,-2 -1,-1 -1,-2 -2,-2 -2,-2 -4,-3 -5,-4 -1,-1 -1,-2 -1,-3 0,-7 0,-16 0,-23 -5,0 -44,0 -46,1l0 23c0,1 0,1 0,1 -1,2 1,0 0,1z"/>
   <path class="fil7 str4" d="M3206 1026c0,0 0,0 0,2 0,2 0,4 2,5 2,1 4,1 7,1 1,0 15,1 16,1 4,1 11,1 12,-4 2,-5 -1,-11 -6,-11 -3,0 -7,0 -9,1 -2,0 -6,0 -8,0 0,-2 1,-2 1,-6l2 -2c1,-3 1,-3 2,-6l10 -24c0,-2 1,-4 1,-5 1,-1 1,-2 1,-2 3,0 14,1 16,0 0,-1 0,-18 0,-18 -1,-1 -32,-1 -33,0 -1,0 -1,17 0,18 1,0 5,0 7,0l-2 6c0,1 -2,5 -2,6 0,0 -1,1 -1,2 0,1 0,1 -1,3l-3 7c0,1 0,1 -1,2l-6 16c0,0 0,1 -1,2 0,1 0,2 -1,2 -1,2 -3,2 -3,4zm-2 -84c3,0 62,0 63,0 1,3 0,27 1,28 0,1 0,1 1,1 -1,-4 -1,-20 -1,-26 0,-1 0,-2 0,-2 0,-1 0,-1 0,-2 -1,0 -50,0 -60,0 -4,0 -4,0 -4,1zm9 34c1,-1 -1,1 0,-1 0,0 0,0 0,-1l0 -23c2,-1 41,-1 46,-1 0,7 0,16 0,23 0,1 0,2 1,3l0 -26c-2,0 -45,0 -47,0 -1,2 0,22 0,26z"/>
  </g>
 </g>
</svg>
